<?xml version="1.0" standalone="no"?>
<!DOCTYPE svg PUBLIC "-//W3C//DTD SVG 20010904//EN"
 "http://www.w3.org/TR/2001/REC-SVG-20010904/DTD/svg10.dtd">
<svg version="1.0" xmlns="http://www.w3.org/2000/svg"
 width="1980.000000pt" height="1980.000000pt" viewBox="0 0 1980.000000 1980.000000"
 preserveAspectRatio="xMidYMid meet">
<metadata>
Created by potrace 1.14, written by Peter Selinger 2001-2017
</metadata>
<g transform="translate(0.000000,1980.000000) scale(0.100000,-0.100000)"
fill="#000000" stroke="none">
<path d="M13130 13292 c-6 -2 -8 -8 -4 -13 3 -5 1 -9 -5 -9 -5 0 -12 6 -15 13
-5 9 -7 9 -12 0 -3 -7 -12 -9 -21 -6 -12 5 -14 3 -8 -7 5 -9 4 -11 -3 -6 -6 4
-22 1 -34 -5 -21 -11 -22 -11 -9 5 12 15 12 16 -5 9 -10 -3 -22 -11 -26 -17
-5 -7 -13 -4 -23 9 -9 11 -14 14 -10 8 4 -8 0 -13 -10 -13 -9 0 -14 -4 -11 -8
6 -10 -42 -8 -51 3 -5 4 -2 5 6 0 10 -5 12 -4 7 4 -4 6 -12 9 -17 5 -5 -3 -7
-10 -4 -15 4 -5 3 -9 -2 -10 -4 0 -19 -2 -33 -3 -14 -2 -28 2 -32 8 -5 7 -8 7
-8 -3 0 -11 -3 -11 -17 0 -14 12 -16 12 -8 0 6 -11 3 -13 -13 -9 -12 3 -23 1
-25 -6 -5 -14 -39 -15 -49 -1 -5 7 -10 7 -15 0 -12 -16 -34 -17 -51 -3 -13 11
-14 11 -7 -1 6 -11 3 -13 -13 -9 -12 4 -20 2 -17 -2 3 -5 1 -11 -5 -15 -5 -3
-10 -1 -10 5 0 7 -6 8 -19 0 -11 -5 -22 -6 -25 -1 -3 4 -17 6 -32 3 -19 -3
-22 -7 -12 -13 7 -5 8 -9 3 -9 -6 0 -20 7 -33 15 -20 15 -21 15 -15 -1 4 -12
3 -15 -6 -10 -6 4 -18 2 -26 -4 -8 -7 -15 -8 -15 -3 0 5 -7 10 -15 10 -8 0
-12 -4 -10 -7 7 -11 -48 -9 -62 2 -7 6 -16 2 -26 -12 -9 -14 -17 -17 -22 -11
-3 6 -12 8 -18 4 -19 -11 -47 -11 -47 1 0 6 -4 5 -9 -2 -4 -8 -12 -14 -16 -14
-4 0 -12 6 -16 14 -7 10 -9 9 -9 -4 0 -12 -8 -16 -29 -16 -15 1 -33 -2 -40 -6
-6 -4 -11 -2 -11 4 0 6 -5 8 -10 5 -6 -4 -8 -11 -5 -16 4 -5 1 -9 -4 -9 -6 0
-11 6 -11 13 0 8 -3 8 -8 1 -9 -14 -38 -24 -46 -16 -10 9 -36 11 -36 3 0 -10
-31 -7 -49 4 -10 5 -12 4 -7 -4 5 -8 0 -10 -18 -7 -15 3 -32 -2 -41 -10 -8 -9
-15 -11 -15 -5 0 15 -46 7 -63 -11 -9 -9 -13 -18 -10 -22 4 -3 -2 -6 -13 -7
-10 0 -14 -3 -7 -6 10 -3 10 -7 0 -18 -7 -7 -16 -10 -21 -7 -5 3 -6 0 -2 -6 3
-6 -1 -17 -10 -26 -8 -9 -12 -20 -9 -26 4 -6 1 -9 -7 -8 -7 2 -12 -5 -12 -14
1 -10 -3 -16 -10 -15 -6 1 -10 -6 -9 -16 1 -13 -4 -17 -14 -13 -12 5 -14 1
-10 -14 3 -10 2 -19 -2 -18 -16 2 -31 -3 -30 -9 4 -22 -2 -33 -13 -27 -8 5 -9
2 -5 -9 3 -10 2 -17 -4 -17 -6 0 -7 -6 -3 -12 5 -9 2 -8 -9 1 -15 12 -17 12
-12 -1 4 -9 -1 -22 -9 -31 -8 -8 -12 -17 -9 -21 4 -3 -2 -6 -13 -7 -10 0 -14
-3 -7 -5 8 -4 7 -11 -5 -23 -9 -10 -21 -16 -26 -13 -5 3 -6 0 -2 -6 3 -6 -6
-22 -20 -35 -17 -16 -25 -31 -21 -42 4 -9 3 -14 -2 -11 -5 3 -15 -2 -22 -11
-12 -14 -12 -16 0 -8 10 6 12 4 7 -4 -5 -7 -13 -10 -20 -8 -7 3 -13 -4 -13
-16 -1 -12 -12 -30 -25 -40 -13 -10 -16 -16 -8 -12 8 4 4 -3 -10 -16 -14 -13
-25 -31 -25 -39 0 -8 -8 -14 -17 -14 -11 1 -14 -4 -11 -14 5 -11 3 -13 -8 -7
-11 7 -11 5 1 -10 8 -10 11 -16 5 -13 -10 6 -36 -16 -34 -29 0 -4 -5 -9 -12
-12 -7 -2 -9 1 -4 9 5 9 4 11 -4 6 -8 -5 -9 -12 -2 -19 6 -8 4 -16 -5 -25 -8
-7 -14 -9 -15 -5 -1 4 -4 -3 -8 -17 -4 -14 -14 -24 -21 -22 -11 2 -10 0 1 -14
9 -12 9 -15 2 -10 -7 4 -13 2 -13 -3 0 -19 -40 -52 -53 -44 -8 4 -7 1 2 -10
11 -14 11 -18 -3 -23 -9 -3 -16 -15 -16 -25 0 -11 -7 -22 -15 -25 -8 -4 -12
-11 -9 -18 3 -6 -2 -2 -11 9 -17 20 -17 20 -11 -2 5 -15 0 -28 -16 -44 -13
-12 -16 -19 -8 -15 8 4 5 -1 -7 -12 -13 -11 -23 -28 -23 -37 0 -9 -4 -13 -10
-10 -5 3 -10 -1 -10 -10 0 -11 -5 -15 -15 -11 -13 5 -14 2 -4 -15 8 -16 8 -19
0 -15 -6 4 -14 -1 -18 -11 -4 -10 -13 -23 -21 -29 -9 -7 -12 -16 -7 -24 5 -7
4 -11 -1 -8 -13 8 -31 -15 -28 -35 2 -15 0 -16 -14 -5 -12 10 -14 10 -8 1 4
-7 2 -13 -3 -13 -6 0 -10 -3 -10 -7 3 -20 -2 -34 -10 -28 -9 5 -27 -32 -23
-47 1 -5 -2 -8 -7 -8 -5 0 -13 -9 -16 -20 -3 -11 -13 -20 -21 -20 -8 0 -12 -4
-9 -10 3 -5 1 -10 -5 -10 -6 0 -14 -8 -17 -17 -4 -10 -12 -23 -17 -30 -33 -38
-41 -48 -42 -55 -1 -5 -2 -13 -3 -18 0 -6 -4 -9 -8 -8 -5 2 -8 0 -8 -4 0 -4
-10 -15 -23 -23 -12 -9 -20 -20 -17 -25 3 -5 -1 -14 -8 -22 -7 -7 -22 -26 -32
-43 -11 -16 -25 -34 -32 -38 -8 -5 -11 -12 -8 -18 4 -5 -1 -12 -9 -15 -9 -3
-13 -10 -10 -15 3 -5 0 -9 -5 -9 -6 0 -11 -7 -11 -16 0 -8 -4 -13 -9 -10 -5 3
-12 -1 -15 -10 -4 -10 -2 -13 6 -8 7 5 8 3 4 -5 -5 -7 -14 -10 -21 -7 -8 3
-11 -2 -8 -15 3 -11 0 -19 -6 -19 -7 0 -9 6 -5 13 5 9 3 9 -7 -1 -12 -11 -12
-14 0 -21 11 -7 9 -10 -8 -16 -13 -4 -21 -12 -18 -18 2 -7 -5 -21 -16 -32 -11
-11 -16 -14 -12 -6 5 10 4 12 -4 7 -6 -4 -9 -11 -6 -15 2 -5 -7 -21 -20 -37
-14 -16 -25 -33 -25 -37 0 -5 -6 -5 -12 -1 -9 5 -9 2 1 -9 12 -15 11 -17 -4
-17 -11 0 -15 -5 -11 -15 3 -8 2 -14 -2 -12 -11 3 -47 -37 -47 -53 0 -8 -8
-14 -17 -14 -9 1 -14 -4 -12 -11 3 -7 -2 -19 -10 -28 -8 -8 -12 -17 -9 -21 4
-3 -1 -6 -10 -6 -9 0 -16 -3 -16 -7 3 -20 -2 -34 -11 -28 -9 5 -15 -16 -11
-38 1 -5 -2 -6 -6 -4 -9 5 -40 -24 -35 -32 2 -3 -5 -8 -15 -12 -13 -6 -14 -8
-3 -9 12 0 11 -3 -3 -11 -9 -6 -14 -15 -11 -21 5 -7 1 -9 -9 -5 -9 3 -19 1
-23 -5 -4 -7 -3 -8 4 -4 19 11 14 -5 -5 -20 -17 -13 -17 -14 2 -9 16 5 16 3
-2 -6 -13 -7 -23 -18 -23 -26 0 -7 -7 -13 -16 -13 -14 0 -14 -3 -4 -15 12 -15
11 -16 -10 -19 -5 0 -10 -4 -10 -8 0 -5 0 -22 0 -39 0 -21 4 -28 13 -23 7 5 6
0 -3 -11 -9 -11 -10 -16 -2 -11 7 4 12 1 12 -8 0 -9 8 -16 18 -17 9 0 12 -3 5
-5 -7 -3 -9 -12 -6 -20 3 -7 9 -11 14 -8 5 3 9 -4 9 -16 0 -12 4 -19 9 -15 5
3 11 -7 13 -22 2 -16 8 -28 15 -28 6 0 15 -4 20 -9 5 -5 3 -6 -4 -2 -7 4 -13
2 -13 -3 0 -6 4 -11 9 -11 5 0 11 -10 13 -22 2 -13 9 -22 16 -20 8 1 11 -2 8
-7 -4 -5 1 -17 10 -25 8 -9 12 -16 8 -16 -4 0 1 -6 12 -14 10 -8 20 -19 20
-25 1 -6 2 -18 3 -27 0 -8 6 -12 11 -9 9 6 14 -14 11 -43 -1 -7 4 -11 11 -10
6 2 13 -3 14 -9 1 -7 2 -17 3 -23 0 -5 6 -10 12 -10 5 0 7 5 4 10 -3 6 -1 10
4 10 14 0 14 -17 1 -25 -7 -4 -3 -14 9 -24 11 -10 18 -21 14 -25 -3 -3 -1 -6
6 -6 8 0 11 -6 7 -16 -3 -8 -2 -12 4 -9 6 3 10 -1 10 -10 0 -10 5 -13 13 -9 7
5 6 0 -3 -11 -10 -13 -11 -16 -2 -11 9 5 15 1 19 -13 3 -12 10 -21 17 -21 6 0
4 -5 -4 -10 -13 -8 -12 -10 3 -10 10 0 15 -4 12 -10 -3 -5 -1 -10 6 -10 7 0 9
-3 6 -7 -4 -3 2 -12 13 -20 11 -8 20 -20 20 -26 0 -7 -4 -6 -10 3 -5 8 -11 12
-14 9 -3 -2 8 -19 24 -36 16 -17 26 -34 23 -37 -4 -3 -1 -6 6 -6 7 0 9 -4 6
-10 -3 -5 -1 -10 5 -10 7 0 9 -7 6 -16 -3 -8 -2 -13 3 -10 5 3 15 -2 22 -11 8
-10 9 -14 2 -10 -6 4 -15 3 -18 -3 -4 -6 -3 -10 2 -9 23 4 35 -2 29 -17 -4
-11 1 -18 14 -21 16 -4 18 -8 9 -20 -10 -11 -9 -13 2 -11 9 2 13 -4 11 -16 -2
-12 1 -16 9 -10 9 5 10 2 6 -9 -4 -10 -2 -16 6 -14 7 1 11 -4 10 -10 -2 -7 3
-13 10 -13 8 0 7 -4 -3 -10 -13 -8 -13 -10 1 -10 9 0 23 -8 30 -17 13 -16 12
-17 -4 -4 -15 12 -17 12 -11 -3 3 -9 13 -16 21 -16 8 0 11 -4 8 -10 -3 -5 -1
-10 5 -10 6 0 8 -5 5 -10 -3 -6 0 -13 9 -16 8 -3 13 -14 11 -24 -3 -14 1 -17
13 -13 15 6 16 5 2 -13 -8 -10 -11 -16 -6 -12 14 12 35 -15 23 -30 -8 -10 -5
-14 11 -19 12 -3 22 -12 22 -19 0 -8 6 -14 13 -14 8 0 7 -4 -3 -11 -12 -9 -11
-10 7 -6 20 4 21 3 12 -15 -9 -16 -8 -19 2 -13 9 6 11 3 6 -8 -4 -11 -1 -17 6
-17 7 0 19 -16 27 -35 7 -19 17 -32 21 -30 4 3 9 -2 12 -10 4 -10 1 -12 -10
-8 -11 4 -9 -1 6 -16 12 -12 27 -19 34 -14 7 4 7 0 -2 -10 -9 -12 -10 -17 -2
-17 7 0 9 -4 6 -10 -3 -5 2 -10 12 -11 10 0 13 -3 6 -6 -10 -3 -9 -8 2 -20 8
-8 12 -19 9 -25 -4 -6 -2 -8 3 -5 13 8 26 -20 16 -36 -4 -7 0 -8 12 -4 14 6
16 3 12 -13 -3 -11 -1 -18 4 -14 5 3 9 0 9 -5 0 -19 4 -26 27 -49 13 -12 25
-33 29 -47 3 -13 12 -26 21 -29 8 -3 11 -10 8 -16 -3 -5 -1 -10 5 -10 6 0 8
-4 5 -10 -3 -5 -1 -10 5 -10 6 0 8 -4 5 -10 -3 -5 -1 -10 4 -10 6 0 11 -9 11
-20 0 -11 7 -20 15 -20 8 0 12 -6 9 -14 -3 -8 3 -19 16 -26 17 -9 19 -14 9
-26 -11 -14 -2 -20 25 -15 5 1 3 -6 -4 -16 -8 -10 -10 -15 -6 -11 12 10 56
-50 56 -75 0 -10 4 -15 10 -12 6 3 7 -1 4 -9 -4 -9 1 -18 10 -22 9 -3 16 -15
16 -26 0 -12 4 -17 12 -12 8 5 9 2 5 -9 -4 -11 -1 -17 7 -17 8 0 13 -8 12 -17
0 -10 5 -17 12 -16 6 2 12 -1 12 -5 0 -4 -6 -14 -12 -21 -7 -7 -8 -12 -3 -11
6 2 17 2 25 1 13 -1 13 -2 0 -11 -11 -7 -11 -10 -2 -10 8 0 10 -5 6 -12 -5 -8
0 -7 11 2 17 14 18 14 6 -8 -9 -18 -9 -22 1 -20 7 2 13 -4 13 -12 0 -20 18
-39 30 -32 6 2 4 -1 -2 -9 -14 -14 -17 -30 -5 -28 19 3 33 -2 27 -11 -6 -9 42
-16 88 -12 9 1 17 -5 17 -14 0 -14 2 -14 16 0 17 18 28 21 19 7 -3 -5 -1 -12
5 -16 5 -3 10 -2 10 4 0 7 8 7 25 1 17 -7 25 -6 25 1 0 8 4 8 13 2 6 -6 25 -8
40 -6 16 2 36 -2 44 -8 12 -10 16 -10 24 2 7 11 9 11 9 0 0 -11 3 -11 15 -1
10 8 15 9 15 1 0 -6 10 -11 23 -11 95 1 117 -1 111 -13 -5 -9 -3 -9 7 1 15 14
33 17 25 4 -3 -5 1 -9 9 -9 8 0 12 3 10 7 -2 4 2 7 10 7 8 0 12 -4 8 -9 -3 -6
19 -8 51 -7 31 1 59 -1 63 -6 5 -4 2 -5 -6 0 -9 5 -12 4 -7 -3 5 -9 13 -8 30
3 20 13 25 13 35 2 6 -8 10 -16 8 -18 -1 -2 4 2 11 10 9 11 12 12 12 2 0 -7 6
-11 14 -8 7 3 19 0 25 -6 8 -8 11 -8 11 1 0 6 6 9 14 6 8 -3 29 -7 48 -8 18
-1 44 -8 58 -14 22 -12 23 -12 7 1 -17 14 -16 15 7 13 13 0 22 -4 20 -7 -6
-11 70 -17 77 -6 4 5 9 3 12 -4 4 -10 6 -10 6 -2 1 9 8 10 26 3 14 -5 25 -6
25 -2 0 4 5 0 10 -8 6 -10 10 -11 10 -2 0 6 7 12 15 12 8 0 15 -6 15 -12 0 -9
4 -8 10 2 6 10 10 11 10 3 0 -9 18 -12 59 -10 33 2 58 0 55 -4 -7 -12 34 -17
45 -6 8 8 11 7 11 -2 0 -11 3 -11 15 -1 12 10 15 10 15 0 0 -8 3 -10 7 -7 3 4
12 2 20 -4 7 -6 13 -7 13 -2 0 4 18 7 40 5 22 -2 40 -9 40 -15 0 -6 7 -2 15 9
13 16 14 16 9 2 -7 -20 12 -25 19 -5 4 9 6 9 6 0 1 -7 6 -13 12 -13 5 0 7 6 3
13 -6 8 -3 8 9 -2 9 -7 24 -11 32 -7 8 3 15 0 15 -7 0 -9 2 -9 8 0 5 7 13 9
21 3 8 -4 21 -6 29 -2 10 3 13 1 8 -6 -9 -16 7 -15 22 0 9 9 12 9 12 -2 0 -13
2 -13 10 0 14 22 12 30 -7 30 -15 0 -14 2 3 15 15 12 16 14 2 9 -13 -4 -16 -1
-13 15 4 24 -5 27 -24 8 -11 -10 -12 -8 -6 11 5 16 2 22 -10 22 -9 0 -13 5
-10 10 3 6 2 10 -3 10 -10 0 -38 60 -34 72 1 4 -5 5 -13 2 -11 -4 -15 1 -15
16 0 15 -5 20 -14 17 -10 -4 -13 -1 -9 9 3 8 -2 21 -12 28 -12 9 -15 18 -10
27 7 12 6 12 -7 1 -14 -11 -16 -10 -11 9 4 15 3 20 -5 15 -7 -4 -12 -1 -12 8
0 8 -5 16 -11 18 -5 2 -11 12 -13 22 -1 10 -11 25 -21 32 -10 8 -15 14 -10 14
5 0 0 7 -11 16 -10 8 -13 13 -7 9 9 -4 11 -1 7 9 -3 9 -10 14 -14 11 -4 -3
-15 6 -23 19 -12 18 -13 26 -4 36 9 10 9 11 -1 6 -17 -10 -42 12 -35 30 3 9
-1 14 -13 14 -16 0 -17 2 -4 10 13 9 13 10 0 11 -8 1 -18 1 -21 1 -4 -1 -5 9
-2 21 4 18 3 20 -7 7 -10 -12 -11 -11 -7 8 3 14 0 22 -8 22 -8 0 -17 5 -21 12
-5 8 -1 9 12 5 18 -7 18 -7 0 7 -11 9 -15 20 -10 28 5 9 2 8 -11 -2 -10 -8
-16 -10 -12 -3 4 6 1 14 -5 16 -9 4 -9 6 1 6 11 1 10 5 -5 17 -10 8 -12 12 -4
8 13 -7 13 -5 1 9 -7 9 -20 17 -27 17 -8 0 -13 6 -11 13 1 6 -3 11 -10 10 -6
-1 -10 5 -9 15 2 9 -5 23 -15 30 -10 7 -16 21 -14 33 4 17 2 19 -11 8 -12 -10
-13 -9 -8 6 5 13 4 16 -4 11 -7 -4 -12 -3 -12 3 0 5 6 12 13 15 6 4 2 4 -10 2
-15 -3 -20 0 -16 10 3 8 0 20 -6 28 -6 7 -8 16 -4 20 4 4 -1 4 -11 0 -14 -5
-17 -4 -12 4 4 7 2 12 -3 12 -6 0 -10 6 -8 13 1 6 -4 11 -12 9 -12 -3 -12 -1
0 14 9 12 9 15 2 10 -8 -4 -13 -2 -13 4 0 6 -4 8 -10 5 -5 -3 -10 3 -10 13 0
22 -23 46 -33 35 -4 -3 -7 -2 -7 3 0 6 5 15 12 22 9 9 9 12 -3 12 -9 0 -21 12
-27 26 -7 14 -16 23 -21 20 -4 -3 -7 6 -5 19 1 14 -2 23 -7 19 -5 -3 -10 0
-10 5 -1 6 -2 15 -3 20 0 6 -11 19 -24 31 -13 12 -19 26 -15 33 4 7 -1 6 -10
-2 -15 -12 -17 -12 -11 3 3 9 1 16 -5 16 -6 0 -11 8 -11 19 0 10 -7 24 -15 31
-8 7 -12 16 -9 21 3 5 -2 6 -10 3 -11 -4 -14 0 -11 14 4 20 -38 66 -50 54 -3
-4 -3 1 0 10 3 8 -1 23 -10 32 -10 9 -14 24 -11 33 6 13 4 14 -9 3 -13 -11
-16 -11 -13 1 2 8 -3 13 -9 12 -7 -2 -13 2 -13 7 0 6 6 10 13 10 8 0 7 3 -3 9
-8 6 -18 7 -23 4 -5 -3 -4 5 3 17 8 15 8 20 1 16 -6 -4 -11 -2 -11 3 0 6 -7
11 -16 11 -8 0 -13 4 -10 9 4 5 0 12 -6 14 -10 4 -9 6 1 6 8 1 3 9 -13 22 -14
11 -26 25 -26 30 0 5 -5 15 -10 22 -25 29 -59 88 -48 81 9 -6 9 -3 -1 9 -7 9
-18 14 -24 10 -6 -3 -7 -1 -3 5 4 7 1 12 -6 12 -9 0 -9 3 2 10 13 9 13 10 0
11 -8 1 -19 1 -23 0 -5 -1 -5 8 -2 20 5 15 4 19 -4 15 -7 -4 -11 1 -11 12 0
11 -7 23 -16 26 -9 3 -14 13 -11 20 4 10 0 13 -14 11 -18 -4 -19 -2 -7 12 9
12 9 15 1 9 -12 -6 -18 5 -14 27 0 4 -4 7 -9 7 -6 0 -10 5 -10 12 0 7 -12 23
-27 36 -16 13 -23 21 -16 18 6 -4 15 -1 19 5 4 8 3 9 -4 5 -7 -4 -12 -2 -12 4
0 6 -4 9 -9 6 -11 -7 -23 22 -14 36 3 6 1 8 -4 5 -12 -8 -26 20 -18 34 4 5 -2
6 -11 2 -14 -5 -16 -3 -10 12 4 11 4 16 0 13 -6 -7 -17 2 -44 36 -9 12 -10 17
-2 12 20 -12 14 8 -8 24 -11 8 -20 19 -20 26 0 6 -10 16 -22 23 -19 9 -19 11
-3 6 19 -5 19 -4 1 9 -10 9 -15 20 -10 27 4 8 3 10 -4 5 -7 -4 -12 -2 -12 4 0
6 -4 8 -10 5 -6 -4 -7 1 -3 11 4 12 3 15 -5 10 -8 -5 -12 0 -12 13 0 12 -5 21
-11 21 -5 0 -8 4 -5 9 3 5 -1 11 -9 15 -8 3 -15 12 -15 21 0 8 -5 15 -11 15
-5 0 -7 5 -4 10 3 6 -2 10 -12 11 -11 0 -13 3 -5 6 9 4 7 10 -7 22 -12 10 -18
21 -14 25 3 3 -2 6 -13 7 -10 0 -14 3 -7 6 13 5 10 10 -29 53 -9 10 -19 28
-23 40 -6 18 -9 20 -17 9 -7 -10 -8 -8 -5 9 3 12 2 20 -2 18 -4 -3 -12 4 -19
14 -10 16 -7 24 21 54 18 19 31 39 29 45 -2 6 4 11 13 11 9 0 14 4 10 9 -3 5
7 19 21 30 15 12 23 21 18 21 -5 0 -1 7 9 14 10 8 17 18 16 22 -4 21 2 25 19
13 9 -7 14 -9 10 -5 -4 5 -2 16 5 24 10 13 9 14 -3 7 -8 -4 -4 3 10 16 13 13
28 23 32 22 4 -2 5 4 2 12 -4 8 -1 15 6 15 6 0 8 5 4 13 -5 8 -2 7 9 -2 15
-12 17 -12 12 2 -4 8 -1 18 4 22 6 3 8 11 5 17 -5 8 -1 9 10 5 13 -5 17 -3 13
7 -4 9 2 17 14 21 10 4 19 15 19 25 0 11 7 23 16 28 9 5 15 12 15 15 -2 17 0
19 12 8 11 -9 13 -5 12 19 -1 16 1 29 4 28 22 -2 30 4 24 19 -4 11 -3 14 5 9
7 -4 12 -1 12 9 0 8 6 18 14 21 9 3 12 12 8 22 -5 15 -4 15 11 3 15 -12 17
-12 12 1 -4 9 8 29 29 51 19 19 32 38 28 41 -3 3 0 6 6 6 6 0 9 7 6 15 -5 11
-2 13 12 8 9 -3 15 -2 12 3 -8 12 17 35 28 26 5 -4 2 1 -5 11 -12 15 -12 17 4
11 10 -4 16 -3 13 2 -7 11 17 35 26 26 4 -3 4 1 0 11 -3 9 -2 17 4 17 5 0 12
9 15 20 3 11 12 20 21 20 10 0 13 5 9 17 -5 12 -3 14 7 8 10 -6 12 -4 7 8 -3
9 -1 19 5 23 7 5 8 2 3 -7 -8 -12 -6 -12 8 0 9 7 14 17 11 22 -3 5 2 9 10 9
10 0 13 6 10 15 -5 12 -2 14 12 8 17 -6 18 -5 4 12 -8 10 -10 16 -4 12 14 -8
27 7 55 59 13 26 18 31 14 14 -6 -24 -5 -24 10 3 9 15 13 32 10 37 -4 6 -2 9
4 8 6 -2 17 8 24 22 8 16 20 24 33 22 10 -2 15 1 9 5 -15 12 -17 33 -2 30 6
-1 11 6 11 16 -2 14 1 15 12 6 11 -9 14 -8 14 6 0 10 7 23 16 29 8 6 16 19 17
27 2 9 10 24 20 33 9 10 17 22 17 27 0 5 5 9 11 9 8 0 7 -6 -2 -17 -13 -16
-12 -17 3 -5 9 7 15 22 13 32 -3 14 1 17 13 13 9 -3 14 -3 10 2 -4 4 4 16 17
27 14 11 23 24 19 29 -3 5 2 12 11 15 13 6 14 8 3 15 -10 7 -9 9 5 9 10 0 15
5 12 10 -3 6 -1 10 5 10 6 0 9 4 6 9 -4 5 4 7 16 4 13 -3 19 -1 13 4 -12 10
-19 36 -7 29 10 -6 43 30 35 38 -3 3 2 8 11 12 9 3 16 13 16 21 0 11 7 14 21
10 17 -4 19 -3 10 6 -14 14 -15 30 -1 22 6 -3 10 1 10 9 0 9 5 16 11 16 6 0 9
7 5 15 -3 8 -2 14 2 14 17 -3 35 2 29 7 -6 6 1 17 46 65 15 17 24 35 21 41 -5
7 -2 9 8 6 11 -5 14 0 12 18 -1 13 2 22 7 18 12 -7 37 18 31 34 -2 8 2 10 14
5 11 -4 15 -3 11 4 -4 6 0 18 8 26 8 9 15 19 15 23 0 8 21 32 68 77 17 17 32
39 32 49 0 10 7 21 15 24 8 4 15 12 15 20 0 8 7 14 16 14 10 0 14 6 10 15 -3
8 -1 15 5 15 6 0 7 5 3 12 -4 6 -3 8 3 5 6 -4 19 1 29 9 10 9 13 13 7 9 -7 -3
-13 -1 -13 4 0 10 12 15 31 13 3 -1 5 9 5 21 -1 15 5 22 16 21 9 -1 14 4 12
11 -3 7 7 22 22 34 15 12 24 24 21 27 -9 9 16 32 30 27 7 -3 10 5 9 21 -2 14
1 23 5 20 5 -3 9 1 9 8 0 9 3 9 10 -2 8 -13 10 -12 11 5 1 11 1 23 0 27 0 4 6
5 14 2 10 -4 15 0 15 11 0 10 -5 13 -12 9 -7 -4 -8 -3 -4 5 4 6 11 9 16 6 4
-3 14 3 21 12 12 14 12 16 0 8 -10 -6 -12 -4 -7 4 5 7 14 10 21 7 9 -3 11 2 7
16 -4 16 -2 19 9 13 8 -5 11 -5 7 0 -7 8 -80 13 -98 7z m-830 -122 c0 -5 -5
-10 -11 -10 -5 0 -7 5 -4 10 3 6 8 10 11 10 2 0 4 -4 4 -10z m546 -368 c-17
-16 -18 -16 -5 5 7 12 15 20 18 17 3 -2 -3 -12 -13 -22z m-471 -611 c3 -5 2
-12 -3 -15 -5 -3 -9 1 -9 9 0 17 3 19 12 6z m-1738 -696 c0 -8 -4 -12 -9 -9
-5 3 -6 10 -3 15 9 13 12 11 12 -6z m1657 -2223 c3 -5 -1 -9 -9 -9 -8 0 -12 4
-9 9 3 4 7 8 9 8 2 0 6 -4 9 -8z m561 -862 c3 -6 -1 -7 -9 -4 -18 7 -21 14 -7
14 6 0 13 -4 16 -10z"/>
<path d="M10054 12883 c5 -10 -5 -13 -39 -13 -34 0 -44 -3 -39 -12 6 -10 4
-10 -8 0 -12 10 -18 10 -23 1 -6 -8 -10 -7 -16 2 -7 11 -9 11 -9 1 0 -7 -4
-10 -10 -7 -5 3 -10 0 -10 -7 0 -8 -3 -9 -8 -3 -9 13 -62 14 -55 1 4 -5 -1 -7
-9 -3 -9 3 -21 0 -28 -6 -10 -9 -11 -9 -5 3 8 13 6 13 -8 2 -9 -8 -21 -11 -27
-7 -5 3 -10 2 -10 -3 0 -10 -42 -8 -59 2 -5 4 -13 1 -17 -5 -5 -8 -3 -9 6 -4
9 6 11 4 5 -4 -5 -9 -11 -9 -17 -3 -14 14 -40 3 -31 -12 3 -6 -4 -2 -16 8 -16
15 -20 16 -16 4 5 -13 0 -15 -30 -11 -28 3 -35 1 -29 -9 6 -9 3 -9 -9 1 -15
12 -17 11 -18 -5 0 -18 -1 -18 -8 -1 -6 17 -8 18 -20 3 -13 -15 -15 -15 -32
-1 -16 15 -18 15 -28 -2 -8 -14 -10 -14 -11 -3 0 13 -2 13 -9 1 -8 -12 -13
-12 -24 -3 -11 10 -17 9 -27 -3 -15 -18 -34 -20 -24 -2 6 8 3 8 -9 -2 -9 -7
-24 -11 -32 -7 -8 3 -15 0 -15 -7 0 -8 -4 -6 -10 3 -9 13 -10 13 -10 0 0 -13
-1 -13 -10 0 -5 8 -10 10 -10 4 0 -7 -11 -9 -25 -6 -17 3 -25 0 -25 -9 0 -11
-2 -11 -10 1 -5 8 -10 10 -10 4 0 -15 -58 -24 -64 -10 -3 7 -5 6 -5 -1 -1 -7
-6 -13 -12 -13 -5 0 -7 6 -4 13 4 6 0 4 -8 -5 -8 -10 -17 -15 -21 -11 -4 4 -4
0 0 -10 4 -10 1 -17 -6 -17 -9 0 -10 -3 -1 -14 9 -11 8 -15 -5 -20 -13 -5 -15
-9 -6 -18 14 -14 16 -32 4 -24 -5 3 -9 -1 -9 -9 0 -8 5 -12 10 -8 5 3 4 -5 -3
-17 -10 -18 -9 -24 1 -31 11 -7 11 -9 1 -9 -7 0 -10 -4 -7 -10 3 -5 0 -10 -7
-10 -8 -1 -6 -6 6 -15 18 -14 18 -15 2 -15 -10 0 -16 -6 -13 -12 2 -7 0 -21
-5 -30 -6 -13 -5 -18 4 -18 9 0 9 -3 -2 -10 -8 -5 -10 -10 -3 -10 6 0 9 -9 6
-20 -5 -17 -8 -18 -21 -8 -11 9 -10 5 3 -16 18 -28 18 -29 0 -42 -12 -9 -14
-14 -6 -14 11 0 11 -3 1 -15 -10 -12 -10 -15 1 -15 12 0 12 -2 0 -9 -7 -5 -10
-14 -7 -20 4 -6 1 -11 -6 -11 -9 0 -9 -3 2 -10 14 -9 7 -15 -14 -11 -5 1 -5
-4 1 -11 16 -19 16 -30 1 -39 -11 -7 -11 -11 0 -17 10 -7 9 -16 -8 -45 -14
-24 -17 -37 -10 -42 8 -5 8 -11 -1 -21 -9 -11 -9 -14 1 -14 10 0 10 -3 1 -14
-9 -11 -9 -15 1 -19 10 -4 10 -6 -1 -6 -11 -1 -11 -4 -1 -16 10 -12 9 -16 -3
-21 -9 -3 -13 -13 -9 -26 3 -13 1 -19 -5 -15 -5 3 -10 -1 -10 -9 0 -9 6 -13
16 -9 11 4 10 1 -3 -14 -16 -18 -17 -23 -5 -38 9 -11 10 -14 2 -9 -9 5 -13 0
-13 -13 0 -12 -6 -21 -12 -21 -10 0 -10 -2 -1 -8 12 -8 13 -29 0 -49 -4 -6 -3
-14 2 -18 6 -3 8 -12 5 -20 -4 -8 -9 -13 -13 -10 -4 2 -8 -2 -8 -10 0 -8 5
-11 11 -8 6 4 2 -4 -9 -17 -11 -13 -14 -20 -7 -16 14 8 16 -3 3 -24 -6 -8 -7
-19 -3 -25 10 -16 11 -36 1 -29 -5 3 -6 10 -3 16 4 7 2 8 -5 4 -6 -4 -9 -12
-6 -17 4 -5 1 -9 -6 -9 -7 0 -5 -6 6 -13 12 -10 14 -16 7 -21 -16 -10 -15 -29
1 -21 6 4 3 -1 -7 -9 -18 -15 -15 -21 9 -16 5 1 2 -7 -8 -17 -12 -14 -14 -22
-6 -30 8 -8 7 -13 -2 -18 -8 -6 -10 -4 -4 6 5 8 4 11 -1 6 -5 -5 -9 -25 -10
-45 -1 -20 -5 -44 -9 -53 -3 -10 -2 -20 4 -23 6 -4 8 -13 5 -21 -4 -8 -10 -13
-14 -10 -4 3 -4 -11 0 -30 5 -24 5 -33 -3 -28 -6 4 -8 0 -4 -10 4 -10 1 -17
-5 -17 -9 0 -9 -3 -1 -11 13 -13 6 -39 -9 -39 -6 0 -4 8 3 18 13 15 12 16 -3
4 -16 -13 -16 -15 0 -40 12 -19 13 -24 3 -18 -11 7 -13 4 -9 -11 3 -11 1 -27
-3 -36 -6 -10 -5 -18 1 -22 7 -4 7 -12 0 -24 -5 -10 -6 -22 -2 -27 4 -5 -2 -2
-12 6 -18 14 -19 14 -7 -9 11 -19 11 -25 0 -32 -12 -7 -12 -9 0 -9 10 0 11 -3
2 -13 -8 -10 -7 -17 2 -27 10 -10 8 -12 -8 -6 -19 6 -19 5 -2 -8 12 -10 14
-15 6 -18 -8 -3 -12 -21 -11 -47 1 -23 -2 -40 -6 -37 -4 2 -8 -4 -8 -14 0 -10
3 -17 6 -15 4 2 7 -3 7 -11 0 -9 -6 -13 -15 -9 -12 4 -13 3 -2 -10 10 -12 10
-15 -1 -15 -9 0 -10 -3 -2 -11 11 -11 6 -52 -6 -45 -4 3 -6 -12 -6 -32 1 -20
-2 -45 -7 -54 -5 -10 -4 -19 3 -23 6 -5 4 -12 -8 -21 -14 -11 -15 -13 -3 -14
12 0 11 -3 -3 -11 -10 -6 -14 -15 -10 -22 10 -17 3 -90 -10 -106 -9 -11 -9
-13 0 -8 8 5 11 1 10 -12 0 -11 -4 -18 -8 -15 -12 7 -18 -23 -6 -35 8 -8 8
-11 -2 -11 -7 0 -9 -4 -6 -10 3 -5 3 -15 -1 -22 -4 -6 -8 -25 -10 -41 -1 -20
1 -25 7 -16 6 9 9 10 9 2 0 -6 -4 -14 -8 -17 -4 -2 -9 -19 -10 -37 -2 -18 -8
-37 -15 -41 -9 -6 -9 -8 1 -8 9 0 8 -7 -4 -25 -13 -20 -13 -25 -3 -25 11 0 11
-2 -1 -10 -11 -7 -11 -10 -2 -10 9 0 10 -5 3 -19 -6 -10 -7 -22 -3 -26 4 -5
-1 -5 -11 -2 -11 4 -16 3 -12 -3 3 -6 14 -10 23 -10 16 -1 16 -1 0 -10 -12 -7
-15 -21 -13 -50 2 -29 0 -38 -8 -33 -7 4 -6 -1 2 -10 12 -15 11 -17 -2 -17 -9
0 -19 -4 -22 -10 -3 -5 0 -7 9 -4 11 4 15 -1 14 -18 -1 -12 -6 -29 -11 -35 -5
-7 -6 -24 -3 -38 4 -15 2 -25 -4 -25 -7 0 -7 -7 1 -21 6 -12 7 -19 1 -15 -5 3
-13 -1 -16 -10 -4 -10 -2 -13 7 -8 9 6 9 5 0 -7 -10 -12 -10 -18 0 -29 10 -10
9 -11 -2 -5 -10 6 -11 2 -6 -15 6 -17 4 -21 -6 -14 -10 6 -10 3 1 -11 14 -17
13 -18 -4 -12 -16 6 -17 5 -7 -7 9 -11 9 -16 0 -21 -8 -6 -7 -10 2 -16 10 -6
11 -9 2 -9 -7 0 -13 -9 -13 -21 0 -13 4 -18 13 -14 6 4 4 0 -5 -8 -13 -10 -15
-16 -6 -25 9 -9 9 -12 -1 -12 -7 0 -10 -4 -6 -9 3 -5 1 -12 -5 -16 -5 -3 -10
-11 -10 -16 0 -6 5 -7 11 -3 8 4 8 1 1 -12 -5 -11 -9 -36 -8 -57 2 -30 -1 -37
-12 -32 -11 4 -12 2 -4 -8 9 -10 8 -17 -1 -27 -10 -10 -9 -12 3 -6 8 4 6 0 -4
-8 -20 -16 -20 -16 0 -16 17 -1 17 -3 -6 -22 -16 -14 -19 -19 -7 -15 9 4 17 2
17 -3 0 -6 -5 -10 -11 -10 -5 0 -7 -4 -4 -10 3 -5 1 -19 -6 -31 -7 -15 -8 -19
0 -15 7 5 9 1 5 -8 -3 -9 -11 -16 -18 -16 -8 0 -8 -2 0 -8 16 -10 13 -83 -3
-77 -15 5 -13 -16 2 -27 6 -5 5 -8 -4 -8 -9 0 -11 -8 -7 -25 4 -16 2 -25 -5
-25 -8 0 -8 -4 0 -14 9 -11 9 -16 0 -22 -8 -5 -9 -3 -4 6 5 9 4 11 -4 6 -8 -5
-9 -12 -2 -20 5 -6 7 -17 3 -23 -10 -16 -8 -55 3 -73 5 -9 4 -11 -3 -6 -11 7
-16 -17 -15 -61 1 -7 -3 -13 -8 -13 -5 0 -5 -7 -2 -17 4 -10 2 -14 -4 -10 -11
7 -11 -22 1 -41 4 -7 2 -12 -4 -12 -7 0 -9 -7 -6 -16 3 -8 2 -12 -4 -9 -6 3
-10 1 -10 -4 0 -6 6 -11 13 -11 8 0 7 -4 -3 -10 -8 -5 -10 -10 -4 -10 6 0 11
-7 11 -15 0 -8 -4 -12 -9 -9 -5 3 -7 -6 -4 -20 3 -14 0 -29 -6 -32 -7 -4 -8
-2 -4 4 4 7 2 12 -4 12 -7 0 -10 -3 -8 -7 3 -5 10 -22 17 -40 11 -28 15 -31
37 -23 13 5 24 6 24 2 0 -10 51 -9 68 2 7 4 12 2 12 -5 0 -9 3 -9 14 0 11 10
17 8 25 -6 6 -10 11 -13 11 -6 0 14 99 7 114 -7 6 -6 15 -5 23 1 9 9 13 8 13
0 0 -8 5 -9 17 -2 13 7 23 5 37 -7 11 -9 16 -12 13 -6 -4 7 2 14 14 17 15 4
18 2 10 -7 -7 -8 -4 -11 13 -11 12 1 27 4 33 8 7 4 14 3 18 -3 4 -6 11 -8 16
-5 5 4 9 2 9 -4 0 -10 25 -9 36 2 4 4 13 2 20 -4 8 -7 14 -7 19 1 4 7 11 7 18
2 20 -15 57 -21 57 -9 0 6 7 2 16 -9 8 -10 12 -12 8 -4 -7 13 -5 13 8 2 13
-10 17 -10 22 0 5 10 7 10 12 0 3 -6 11 -9 17 -5 17 10 47 11 41 1 -3 -4 0 -8
5 -8 6 0 11 5 11 12 0 6 7 3 16 -8 8 -10 13 -13 9 -6 -7 14 11 17 20 2 10 -17
25 -11 18 8 -3 11 0 9 12 -6 12 -16 20 -20 29 -13 7 6 17 6 26 1 8 -5 22 -4
33 2 15 8 18 7 12 -3 -6 -8 -4 -11 7 -6 9 3 21 0 28 -6 10 -9 11 -9 6 1 -4 6
-3 12 3 12 5 0 15 -8 20 -17 10 -17 10 -17 11 0 0 19 15 23 26 5 5 -7 3 -8 -6
-3 -9 5 -11 4 -6 -4 6 -8 12 -9 20 -2 7 6 17 7 21 3 5 -4 5 -1 1 6 -4 7 -12 9
-18 6 -5 -4 -2 5 7 20 14 20 14 26 4 26 -11 0 -11 2 1 10 8 5 11 12 7 16 -4 4
-2 13 5 21 8 11 7 12 -6 7 -14 -5 -14 -3 -2 21 8 15 13 36 11 46 -2 11 2 19 8
19 8 0 8 3 -2 9 -9 6 -10 11 -2 15 6 4 11 12 11 17 0 6 -5 7 -11 3 -8 -4 -8
-1 -1 12 13 24 13 36 0 52 -8 9 -7 11 5 6 12 -4 14 -1 10 17 -5 17 -3 20 8 14
12 -8 12 -6 0 8 -10 13 -10 17 -1 17 10 0 10 3 0 15 -10 12 -10 15 0 15 8 0
10 3 7 7 -4 3 -2 12 5 20 9 11 7 12 -8 7 -18 -5 -18 -5 -2 9 10 8 15 17 11 20
-3 4 0 13 6 21 9 11 9 16 0 22 -8 5 -9 3 -4 -6 5 -9 4 -11 -4 -6 -9 6 -9 11 0
22 6 8 8 14 4 14 -4 0 -2 7 5 15 10 12 10 15 0 15 -9 0 -10 3 -1 13 6 8 8 17
4 20 -3 4 0 14 8 24 9 11 10 14 2 9 -7 -4 -13 -2 -13 3 0 6 5 11 11 11 5 0 8
4 4 9 -3 5 -1 13 5 16 8 5 8 11 0 20 -8 10 -7 14 2 18 10 4 10 6 1 6 -7 1 -13
6 -13 12 0 5 4 8 8 5 5 -3 9 1 9 9 0 8 -4 15 -9 15 -5 0 -6 6 -1 13 14 22 14
49 1 41 -10 -6 -10 -5 -1 8 7 8 10 18 6 22 -4 4 1 4 12 0 17 -6 18 -5 8 7 -14
17 -14 30 -1 47 7 8 7 12 -1 12 -8 0 -9 5 -2 18 7 13 7 22 0 29 -8 8 -7 13 2
18 7 5 10 4 6 -2 -3 -5 1 -10 9 -10 13 0 13 2 0 15 -13 14 -13 17 2 29 9 8 12
12 5 9 -13 -7 -12 31 1 52 4 7 2 12 -5 12 -8 0 -8 4 1 15 10 12 10 15 -1 15
-11 0 -11 2 1 10 9 5 16 26 16 47 1 21 3 43 4 48 6 25 4 41 -5 48 -6 4 -5 10
4 16 8 5 11 16 7 26 -5 13 -2 16 10 11 14 -5 15 -4 4 9 -7 9 -10 18 -7 22 4 3
1 13 -6 21 -10 13 -9 14 2 7 11 -6 13 -4 8 8 -4 10 -2 17 5 17 7 0 6 5 -2 15
-10 12 -10 18 0 30 10 12 10 15 -1 16 -8 0 -5 4 6 9 11 5 14 9 7 9 -9 1 -10 6
-4 19 5 9 7 23 4 31 -2 7 2 17 9 22 10 6 11 9 2 9 -7 0 -13 5 -13 11 0 5 6 7
13 3 9 -6 9 -5 0 7 -10 12 -10 18 -1 27 9 9 9 12 -2 12 -11 1 -10 3 3 11 14 8
16 14 6 25 -9 11 -9 14 1 14 8 0 10 8 6 25 -4 17 -2 25 6 25 9 0 8 3 -2 10
-13 9 -13 10 0 10 12 0 13 2 1 9 -9 6 -10 10 -2 12 7 3 13 30 14 69 1 36 6 68
12 72 6 5 5 8 -3 8 -9 0 -10 5 -2 19 7 14 6 21 -3 24 -7 3 -4 6 6 6 15 1 16 5
7 21 -7 13 -7 20 -1 20 6 0 7 7 4 17 -5 12 -3 14 8 8 12 -8 12 -6 0 9 -13 15
-13 19 0 27 11 7 11 9 0 9 -11 0 -11 3 0 17 8 9 9 14 3 10 -6 -3 -11 0 -11 8
0 8 5 11 10 8 6 -4 8 2 5 15 -4 12 -3 24 1 26 4 3 5 26 4 52 -2 26 1 52 6 58
12 14 17 68 8 82 -4 7 0 15 9 18 14 5 14 9 3 23 -16 19 -16 20 8 40 10 8 13
12 6 9 -6 -4 -14 -2 -18 4 -3 5 1 10 10 10 13 0 14 4 5 20 -8 14 -8 20 0 20 7
0 7 7 -1 21 -7 14 -7 19 0 15 7 -5 9 8 6 36 -3 26 -1 38 4 29 6 -9 10 0 13 28
2 23 -1 46 -6 51 -7 7 -6 10 1 10 6 0 9 9 6 21 -4 12 0 25 8 30 8 5 9 9 3 9
-7 0 -15 7 -18 16 -5 14 -4 15 8 5 13 -11 15 -9 11 8 -2 12 1 21 7 21 7 0 6 6
-2 15 -7 8 -9 15 -4 15 5 0 10 11 10 25 1 14 -2 22 -7 19 -8 -5 -7 6 8 44 3 9
5 25 4 36 -2 12 2 16 9 11 9 -6 9 -2 1 13 -14 26 -14 32 0 32 5 0 7 -5 3 -12
-4 -7 -3 -8 4 -4 9 5 8 12 -1 27 -10 16 -9 21 3 29 13 8 13 10 1 10 -11 0 -10
3 3 13 17 13 17 14 1 30 -10 10 -12 17 -5 17 7 0 10 8 7 20 -3 11 -2 22 3 25
4 2 5 17 2 31 -3 18 -1 25 6 20 6 -3 14 -2 17 4 4 6 1 9 -6 8 -7 -2 -13 9 -14
24 -1 15 2 25 7 22 4 -3 5 -10 2 -16 -4 -7 -2 -8 5 -4 6 4 8 12 5 18 -10 16
-5 119 6 133 6 8 5 16 -3 25 -10 10 -9 11 2 5 10 -6 11 -2 6 15 -5 17 -4 21 5
15 9 -6 11 -4 4 6 -13 21 -14 39 -1 39 7 0 5 5 -3 10 -11 7 -12 10 -2 10 9 0
11 7 7 19 -3 11 -2 22 3 25 4 2 8 32 8 64 -1 33 2 58 6 56 4 -2 9 0 13 6 3 5
1 10 -4 10 -6 0 -11 5 -11 11 0 5 5 7 10 4 13 -8 8 18 -5 27 -6 5 -6 8 1 8 6
0 11 12 12 28 0 67 3 83 11 78 10 -7 9 13 -2 31 -4 6 -3 14 3 18 5 3 8 24 7
45 -2 22 0 45 4 52 4 7 3 18 -3 25 -6 7 -6 13 -1 13 5 0 10 8 11 18 3 32 7 47
16 61 6 9 5 12 -2 7 -6 -3 -13 -2 -17 4 -3 5 -1 10 5 10 7 0 10 6 7 14 -3 7 1
25 8 40 8 15 10 26 4 26 -6 0 -7 6 -2 13 4 6 8 30 8 52 1 29 5 39 16 37 10 -2
9 2 -3 11 -17 14 -26 33 -10 24 4 -3 13 1 20 9 10 12 10 14 -2 14 -12 0 -14 5
-7 23 4 12 6 28 3 36 -3 9 0 11 8 6 9 -6 9 -3 1 14 -7 11 -8 21 -3 21 5 0 7
11 4 25 -2 14 -7 23 -10 21 -3 -3 -12 0 -20 7 -13 9 -14 9 -8 0z m-1074 -783
c0 -5 -5 -10 -11 -10 -5 0 -7 5 -4 10 3 6 8 10 11 10 2 0 4 -4 4 -10z"/>
<path d="M7393 12544 c4 -7 -2 -14 -13 -17 -11 -3 -23 -1 -26 5 -3 5 -13 3
-24 -7 -12 -11 -20 -13 -25 -6 -4 8 -12 8 -26 1 -14 -8 -19 -7 -19 1 0 8 -4 8
-15 -1 -12 -10 -15 -10 -15 1 0 9 -3 10 -8 3 -11 -16 -45 -27 -36 -11 4 6 4 9
-1 5 -4 -4 -15 -2 -24 5 -14 11 -14 10 -2 -5 12 -16 10 -18 -28 -14 -22 2 -39
1 -36 -3 2 -4 -2 -8 -10 -8 -8 0 -15 4 -15 8 0 5 -18 2 -40 -6 -22 -8 -40 -12
-40 -8 0 3 -7 0 -15 -7 -9 -8 -20 -9 -27 -4 -17 12 -38 11 -63 -3 -22 -12 -53
-11 -74 2 -10 6 -12 4 -6 -5 6 -10 1 -12 -19 -8 -14 3 -26 1 -26 -3 0 -5 -3
-8 -7 -8 -5 1 -10 0 -13 -1 -20 -7 -39 -7 -34 2 4 7 0 7 -12 0 -11 -5 -25 -7
-33 -4 -8 2 -11 0 -8 -5 3 -5 -3 -9 -13 -9 -10 0 -17 3 -15 6 2 3 -5 6 -15 6
-10 0 -16 -5 -13 -10 4 -5 -1 -7 -10 -3 -10 3 -17 2 -17 -3 0 -6 -5 -10 -11
-10 -5 0 -7 6 -3 13 5 8 2 8 -9 -2 -9 -7 -17 -10 -17 -5 0 5 -5 2 -10 -6 -5
-8 -10 -10 -10 -4 0 14 -31 14 -49 1 -18 -15 -43 -18 -35 -5 5 7 2 8 -5 4 -7
-5 -28 -8 -47 -8 -19 0 -34 -5 -34 -11 0 -8 -3 -8 -8 -2 -9 13 -35 18 -27 5 7
-11 -3 -13 -49 -12 -20 1 -30 -5 -33 -19 -3 -10 -10 -16 -15 -13 -6 4 -5 -3 1
-15 7 -13 8 -21 2 -21 -6 0 -8 -6 -5 -13 3 -8 -2 -20 -11 -27 -12 -10 -13 -16
-4 -26 9 -11 8 -14 0 -14 -7 0 -9 -4 -6 -10 3 -5 1 -18 -4 -28 -7 -13 -6 -23
2 -32 9 -10 9 -11 0 -6 -9 5 -13 0 -13 -13 0 -12 -5 -21 -11 -21 -8 0 -8 -5 1
-15 7 -8 8 -15 3 -15 -6 0 -9 -18 -8 -40 1 -22 -1 -40 -5 -40 -4 0 -10 -9 -13
-20 -3 -11 -1 -18 4 -14 5 3 6 -2 3 -10 -3 -9 -11 -13 -18 -9 -6 4 -4 -2 4
-12 8 -10 10 -16 4 -12 -17 10 -27 -23 -13 -39 9 -11 8 -14 -1 -14 -8 0 -11
-3 -7 -6 3 -4 0 -13 -8 -21 -10 -10 -12 -20 -5 -38 6 -15 6 -25 0 -25 -5 0 -7
-10 -5 -22 3 -12 -2 -33 -11 -46 -12 -18 -12 -22 -3 -16 12 6 12 5 1 -8 -10
-13 -10 -17 0 -21 7 -3 4 -6 -7 -6 -17 -1 -17 -3 -5 -11 10 -6 11 -10 3 -10
-7 0 -12 -3 -12 -7 1 -5 0 -12 -1 -18 -1 -5 -3 -19 -4 -30 0 -11 -7 -19 -14
-17 -8 1 -11 -2 -7 -8 3 -6 11 -7 17 -4 6 4 4 -3 -5 -16 -12 -18 -14 -28 -5
-43 8 -16 8 -19 -5 -14 -11 4 -13 0 -9 -15 3 -14 1 -19 -6 -14 -8 5 -10 2 -6
-8 3 -9 11 -16 18 -16 6 0 3 -5 -8 -11 -14 -9 -15 -13 -6 -19 10 -6 7 -12 -8
-26 -15 -13 -18 -22 -12 -34 5 -10 6 -21 2 -24 -4 -4 -7 -15 -7 -24 0 -9 -6
-16 -13 -14 -10 2 -10 -2 -2 -18 8 -14 8 -26 0 -41 -7 -11 -9 -23 -6 -26 3 -3
-2 -12 -12 -20 -9 -8 -11 -11 -3 -7 11 6 13 3 7 -12 -5 -10 -9 -25 -9 -31 0
-7 -5 -13 -11 -14 -6 0 -2 -4 9 -9 17 -7 17 -9 3 -9 -14 -1 -17 -8 -14 -31 3
-27 -4 -35 -27 -31 -5 1 -5 -4 0 -11 4 -7 9 -24 11 -38 4 -33 8 -35 38 -22 14
7 23 9 21 5 -3 -5 8 -8 24 -8 16 0 29 5 29 10 0 6 5 3 10 -5 7 -11 10 -11 10
-2 0 10 5 10 23 1 20 -11 21 -11 9 4 -12 14 -11 15 17 7 22 -6 31 -5 31 3 0 7
4 6 10 -3 6 -9 10 -11 10 -3 0 7 7 10 15 7 8 -4 22 -1 29 5 10 8 16 9 21 1 9
-15 38 -13 29 3 -6 10 -4 10 7 0 7 -7 17 -13 22 -13 4 0 5 6 1 13 -5 8 -2 8 9
-2 14 -11 17 -11 17 0 0 11 2 11 10 -1 9 -13 10 -13 10 0 0 12 2 12 9 2 6 -11
10 -10 15 4 6 16 8 15 28 -2 12 -11 18 -14 15 -8 -4 7 0 14 8 18 8 3 19 -3 24
-12 7 -12 10 -13 11 -3 0 9 9 12 30 9 22 -3 30 0 31 11 0 11 2 12 6 3 2 -6 9
-9 14 -6 6 3 5 11 -2 20 -9 11 -9 14 0 14 8 0 9 5 1 19 -8 16 -6 22 7 30 10 5
18 13 18 18 0 4 4 7 8 5 5 -1 5 3 1 10 -11 17 -11 39 -2 59 4 9 2 22 -5 29 -8
9 -8 11 -1 7 7 -4 15 0 18 9 3 8 2 12 -4 9 -6 -3 -7 1 -4 9 3 9 11 13 18 9 6
-4 5 1 -3 10 -8 11 -9 17 -3 17 6 0 9 6 6 14 -3 8 0 17 6 21 8 5 7 11 -2 23
-11 13 -11 14 0 8 10 -6 13 -2 10 17 -2 17 4 32 17 42 11 8 16 15 10 14 -5 -1
-17 -1 -25 0 -13 1 -13 3 1 11 10 6 15 20 13 36 -2 20 1 24 13 20 13 -5 14 -4
3 9 -10 12 -10 15 1 15 12 0 12 2 0 9 -9 6 -10 10 -2 16 9 5 9 10 0 21 -10 12
-10 15 2 12 9 -2 13 4 11 16 -2 13 1 16 10 10 11 -6 11 -5 0 8 -8 10 -9 18 -3
22 6 4 8 13 4 21 -3 8 0 15 7 15 6 0 9 4 6 9 -3 5 8 8 24 7 17 -1 30 2 30 7 0
4 5 5 10 2 6 -4 8 -12 4 -18 -3 -7 2 -3 10 7 12 15 16 16 16 5 0 -12 2 -12 10
1 9 13 10 13 10 0 0 -12 2 -13 9 -1 7 11 9 11 14 0 4 -10 6 -10 6 -2 1 9 8 10
27 2 22 -8 25 -7 16 4 -9 11 -8 13 6 12 9 0 22 -4 28 -7 5 -4 16 -3 24 3 21
13 32 11 24 -3 -6 -9 -3 -9 9 0 9 8 25 11 38 7 12 -4 19 -3 16 2 -3 4 13 7 35
5 30 -3 39 -1 33 8 -4 7 4 5 18 -5 17 -11 27 -13 32 -5 3 6 11 8 16 4 5 -3 17
0 26 8 10 7 14 8 10 1 -9 -15 13 -23 36 -11 12 6 17 5 17 -4 0 -9 3 -9 10 2 5
8 10 10 10 4 0 -6 15 -10 33 -10 19 1 31 -4 30 -10 -1 -7 6 -10 17 -7 11 3 28
2 37 -2 10 -5 22 -7 27 -6 5 1 3 -6 -5 -15 -13 -16 -12 -16 8 -5 19 10 24 8
35 -9 7 -11 18 -20 24 -20 7 0 15 -7 18 -16 3 -8 10 -12 16 -9 6 4 7 -1 3 -11
-5 -13 -3 -15 8 -9 11 7 11 5 -1 -10 -9 -11 -10 -16 -2 -11 7 4 12 2 12 -6 0
-9 3 -9 10 2 7 11 10 7 10 -17 0 -24 5 -33 17 -33 9 0 13 -3 10 -7 -4 -3 1
-12 11 -20 16 -14 16 -14 -3 -9 -18 5 -18 4 3 -10 12 -9 22 -25 22 -35 0 -11
6 -19 13 -19 8 0 7 -4 -3 -10 -10 -6 -11 -10 -3 -10 7 0 12 -3 12 -7 -4 -24 2
-43 12 -37 7 4 9 0 5 -14 -4 -11 -2 -23 4 -27 6 -4 8 -16 4 -27 -4 -14 -2 -18
5 -14 15 10 14 -7 -1 -23 -11 -11 -10 -12 1 -6 11 6 13 4 8 -9 -5 -14 -3 -17
8 -12 13 5 13 3 0 -18 -13 -19 -13 -25 -2 -35 8 -6 16 -10 18 -8 2 1 -2 -4
-10 -10 -13 -11 -13 -13 0 -13 12 0 12 -2 -1 -10 -11 -7 -11 -10 -2 -10 7 0
12 -8 10 -17 -1 -10 1 -24 5 -30 5 -9 2 -13 -9 -13 -16 0 -16 -1 2 -15 14 -11
15 -14 4 -15 -13 0 -13 -1 0 -10 8 -5 11 -10 6 -10 -5 0 -3 -6 3 -14 8 -10 9
-16 1 -21 -14 -9 -13 -48 3 -64 10 -11 10 -13 0 -7 -9 5 -13 -1 -14 -21 0 -15
-1 -47 -3 -70 -1 -23 1 -40 6 -37 4 3 5 -2 2 -10 -3 -9 -11 -16 -18 -16 -6 0
-5 -4 4 -10 12 -7 11 -12 -5 -30 -19 -21 -19 -21 1 -15 17 6 17 5 4 -7 -9 -7
-14 -21 -12 -32 3 -13 0 -16 -10 -10 -10 6 -11 5 -1 -7 10 -12 9 -20 -3 -37
-14 -20 -14 -21 3 -16 16 5 16 4 -1 -10 -15 -12 -16 -16 -5 -17 8 0 6 -4 -6
-9 -11 -5 -14 -9 -6 -9 10 -1 11 -4 2 -14 -6 -8 -8 -17 -4 -20 3 -4 0 -7 -8
-8 -8 0 -6 -4 6 -9 16 -7 16 -9 4 -9 -17 -1 -34 -29 -24 -39 3 -3 5 1 5 8 0 7
2 11 5 8 12 -11 -7 -37 -23 -31 -15 4 -15 3 -2 -6 13 -9 13 -14 2 -31 -7 -11
-10 -25 -7 -30 3 -5 1 -11 -5 -15 -5 -3 -10 -11 -10 -16 0 -6 5 -7 12 -3 7 4
8 3 4 -5 -4 -6 -12 -9 -17 -6 -5 4 -9 -3 -9 -14 0 -12 -4 -21 -10 -21 -5 0
-10 -5 -10 -11 0 -5 6 -7 13 -3 9 6 9 5 0 -8 -7 -8 -9 -19 -5 -23 4 -5 1 -5
-7 0 -11 6 -13 2 -9 -18 3 -17 1 -24 -8 -20 -8 3 -11 -4 -10 -21 3 -21 1 -24
-10 -15 -10 8 -12 6 -9 -10 2 -12 -1 -21 -6 -21 -6 0 -7 -4 -4 -10 3 -5 -2
-10 -12 -10 -15 0 -16 -2 -3 -10 12 -8 12 -10 -5 -10 -17 0 -17 -2 -5 -10 11
-7 11 -10 2 -10 -7 0 -11 -4 -7 -9 7 -12 -24 -43 -36 -36 -5 4 -6 -1 -3 -10 4
-10 -2 -24 -15 -36 -11 -11 -21 -25 -21 -30 0 -6 -7 -9 -15 -5 -8 3 -14 2 -13
-2 1 -4 -4 -20 -11 -37 -10 -24 -14 -27 -22 -15 -8 12 -10 10 -6 -7 3 -13 0
-26 -5 -30 -7 -4 -8 -1 -4 8 4 8 -1 5 -11 -7 -10 -11 -27 -26 -38 -33 -16 -10
-17 -12 -2 -7 11 3 15 2 12 -4 -3 -6 -15 -10 -26 -10 -11 0 -17 -4 -14 -10 3
-5 2 -10 -2 -10 -5 0 -18 -7 -29 -16 -10 -8 -12 -12 -4 -8 9 4 12 3 7 -2 -9
-9 -13 -10 -44 -13 -14 -1 -15 -3 -5 -10 10 -6 7 -10 -12 -15 -14 -3 -26 -11
-26 -17 0 -8 -5 -7 -15 1 -13 11 -14 10 -9 -4 4 -12 2 -15 -9 -11 -8 4 -17 -1
-20 -9 -4 -9 -13 -12 -28 -9 -14 4 -20 2 -16 -4 4 -6 0 -14 -9 -17 -10 -4 -13
-2 -8 7 6 8 3 8 -9 -1 -9 -8 -22 -10 -28 -6 -7 4 -9 3 -5 -4 7 -12 -29 -26
-44 -17 -5 3 -10 -1 -10 -11 0 -12 -3 -14 -13 -5 -10 8 -17 7 -27 -2 -10 -10
-11 -9 -5 3 6 12 5 13 -6 3 -7 -7 -21 -13 -30 -13 -10 0 -20 -6 -22 -12 -4
-10 -6 -9 -6 1 -1 11 -4 11 -16 1 -12 -10 -15 -10 -15 0 0 10 -3 10 -15 0 -11
-9 -15 -9 -15 -1 0 7 -5 9 -12 5 -18 -11 -78 -11 -78 -1 0 5 -7 4 -15 -3 -12
-10 -15 -10 -15 0 0 9 -4 9 -17 -1 -14 -12 -15 -12 -9 -1 7 11 4 12 -13 3 -15
-8 -21 -9 -21 -1 0 6 -5 8 -12 4 -19 -12 -48 -12 -48 -1 0 5 -8 3 -17 -4 -15
-12 -16 -12 -8 1 8 13 7 13 -8 1 -14 -11 -17 -11 -17 0 0 12 -2 12 -9 0 -7
-11 -9 -11 -14 0 -4 11 -8 11 -14 2 -5 -7 -14 -9 -23 -3 -8 5 -21 5 -30 0 -9
-5 -22 -5 -30 0 -8 5 -21 5 -31 -1 -12 -6 -20 -5 -24 1 -4 6 -22 10 -40 8 -18
-1 -40 4 -48 11 -11 9 -17 9 -22 0 -6 -8 -10 -7 -16 2 -7 11 -9 11 -9 -1 0
-13 -1 -13 -10 0 -8 12 -10 12 -10 1 0 -10 -3 -11 -14 -2 -11 9 -15 9 -19 -1
-4 -10 -7 -10 -15 1 -8 11 -10 11 -15 0 -5 -12 -6 -12 -6 0 -1 11 -4 11 -16 1
-11 -9 -15 -9 -15 -1 0 9 -5 9 -20 1 -15 -8 -20 -8 -20 2 0 9 -3 9 -10 -2 -6
-9 -13 -11 -17 -5 -9 12 -33 13 -50 2 -8 -5 -13 -3 -13 3 0 8 -6 8 -20 0 -16
-9 -20 -8 -21 7 0 16 -1 16 -9 -2 -5 -11 -9 -14 -9 -7 -1 7 -5 10 -11 7 -5 -3
-10 0 -10 7 0 9 -3 9 -10 -2 -5 -8 -10 -10 -10 -5 0 6 -18 9 -40 9 -24 -1 -40
3 -40 10 0 7 -3 6 -9 -2 -4 -8 -11 -13 -15 -13 -24 3 -27 0 -15 -16 8 -9 9
-14 3 -10 -13 7 -24 -13 -24 -41 0 -15 2 -15 10 -2 6 9 10 10 10 3 0 -6 -4
-15 -10 -18 -5 -3 -10 -20 -10 -36 0 -22 -4 -28 -12 -23 -8 5 -7 0 2 -11 8
-10 10 -16 4 -12 -7 4 -11 -3 -11 -19 0 -15 -7 -30 -14 -35 -11 -6 -11 -11 -2
-20 10 -10 9 -17 -5 -33 -12 -14 -13 -17 -2 -11 13 7 12 5 -1 -11 -9 -11 -15
-34 -13 -56 1 -27 -3 -38 -15 -41 -13 -4 -13 -5 2 -6 10 0 15 -6 12 -11 -4 -6
-10 -8 -14 -6 -4 3 -8 -1 -8 -9 0 -8 5 -15 11 -15 6 0 5 -5 -2 -12 -9 -9 -9
-15 1 -27 9 -12 9 -13 0 -7 -9 5 -13 0 -13 -14 0 -12 -4 -19 -9 -16 -5 4 -7
-3 -4 -14 3 -11 -1 -28 -8 -37 -8 -9 -9 -14 -3 -10 6 3 11 0 11 -8 0 -8 -4
-12 -8 -9 -12 7 -19 -11 -9 -26 4 -7 4 -21 -1 -32 -5 -10 -14 -27 -20 -39 -8
-17 -8 -19 3 -13 11 6 11 5 0 -9 -8 -9 -11 -21 -7 -27 3 -5 1 -10 -5 -10 -6 0
-8 -5 -5 -10 4 -6 11 -8 16 -4 6 3 5 -3 -2 -14 -7 -12 -16 -19 -20 -16 -4 2
-4 -9 1 -26 5 -19 5 -28 -1 -25 -5 4 -9 1 -9 -4 0 -6 5 -11 11 -11 5 0 7 -4 4
-10 -3 -6 1 -7 9 -4 9 3 14 10 11 14 -3 5 4 6 15 3 11 -3 18 -9 15 -13 -3 -5
4 -6 15 -3 11 3 17 10 13 17 -3 6 3 3 14 -6 23 -21 68 -25 58 -5 -4 6 -1 5 7
-3 13 -15 75 -19 96 -6 6 3 17 -1 26 -9 10 -11 17 -12 22 -4 4 8 9 7 16 -2 7
-11 11 -11 15 -2 4 10 7 10 17 0 7 -7 37 -12 74 -11 39 0 62 -3 62 -10 0 -7 3
-7 8 -1 12 17 35 17 28 0 -4 -11 -2 -14 7 -8 6 4 40 8 74 8 49 0 63 -3 64 -15
0 -10 3 -8 9 5 5 11 9 15 9 9 1 -14 33 -13 44 1 5 6 7 1 4 -12 -3 -15 -1 -20
9 -16 8 3 11 10 7 17 -4 6 1 5 10 -3 11 -9 41 -14 80 -14 34 0 68 -5 76 -11
11 -8 13 -8 8 1 -8 13 10 12 32 -1 8 -5 16 -3 22 5 7 11 9 11 9 1 0 -7 4 -11
9 -7 5 3 13 0 17 -6 4 -8 9 -7 15 2 7 11 11 10 23 -6 14 -19 15 -19 22 -2 5
15 9 16 15 5 6 -8 12 -9 17 -3 4 6 18 9 32 8 62 -8 154 -2 168 10 10 8 16 7
23 -4 5 -8 9 -9 9 -2 0 10 25 13 93 14 9 0 17 6 17 12 0 7 4 6 10 -3 8 -12 10
-12 10 -1 0 9 9 12 29 9 18 -3 28 0 24 6 -4 5 1 7 10 3 9 -3 19 -2 22 3 4 6
20 10 36 10 21 0 28 4 24 13 -4 6 1 3 11 -8 16 -20 16 -20 11 3 -4 19 -3 21 9
11 10 -8 14 -8 14 -1 0 7 7 9 17 5 10 -4 14 -2 10 4 -8 12 11 12 30 0 9 -6 11
-3 6 9 -4 12 -3 15 5 10 7 -4 12 -2 12 6 0 9 3 9 10 -2 8 -13 10 -12 10 3 0
14 4 16 19 7 17 -9 19 -7 16 11 -3 16 -1 18 8 10 8 -6 18 -6 27 -1 8 5 19 6
25 2 5 -3 4 2 -4 11 -12 15 -12 17 4 11 12 -5 16 -4 12 3 -5 7 2 10 17 9 15
-2 27 3 31 11 3 9 12 13 21 9 8 -3 13 -2 10 3 -7 11 22 23 35 16 5 -4 6 1 3
10 -5 11 -2 14 10 9 11 -4 16 -1 16 10 0 13 4 15 19 7 15 -9 18 -7 17 7 0 10
6 16 16 16 10 -1 16 3 15 9 -1 7 8 13 21 15 12 2 22 10 22 18 0 8 3 13 8 13
21 -4 32 3 32 19 0 14 2 15 10 2 7 -10 10 -11 11 -2 1 6 3 17 4 22 1 6 3 13 4
16 0 4 9 0 18 -7 11 -10 14 -10 9 -1 -4 6 -2 12 3 12 6 0 10 6 8 13 -1 7 6 11
17 9 12 -2 16 1 10 9 -5 9 -2 10 10 6 14 -6 17 -3 12 9 -4 11 1 18 15 21 12 3
18 11 15 19 -3 8 -2 13 2 13 21 -3 32 2 26 12 -4 7 -1 10 7 7 19 -6 63 48 55
69 -5 13 -4 14 9 3 13 -11 14 -10 9 5 -5 13 -4 16 4 11 7 -4 12 -2 12 4 0 6 5
8 13 4 8 -5 7 -2 -2 9 -12 15 -12 17 3 11 9 -4 16 -3 14 2 -2 5 0 9 4 9 10 0
44 48 40 58 -1 4 3 7 8 7 6 0 15 11 20 25 5 14 14 25 20 25 6 0 8 5 5 10 -3 6
-1 10 5 10 6 0 8 5 4 12 -5 8 -2 9 9 5 9 -3 16 -3 16 1 -4 22 2 42 11 37 6 -3
10 1 10 9 0 9 6 16 13 16 8 0 7 4 -3 10 -13 8 -12 10 4 10 15 0 16 3 6 15 -11
13 -10 14 6 9 10 -4 16 -4 12 1 -4 4 2 17 15 29 12 12 21 28 19 37 -1 9 4 22
13 29 8 7 15 20 15 30 0 10 11 25 24 33 14 10 23 25 22 39 -1 16 4 22 14 20 8
-2 12 0 8 4 -4 4 -2 14 5 22 10 13 9 14 -3 7 -11 -6 -10 -3 2 11 14 16 15 23
5 34 -9 10 -9 11 1 6 6 -4 12 -3 12 3 0 6 6 9 13 7 6 -1 9 -1 5 1 -14 8 -8 23
10 24 14 0 14 2 -3 9 -11 5 -14 9 -7 9 7 1 11 5 8 10 -3 5 1 11 9 15 8 3 12
12 9 19 -3 8 2 21 10 30 9 9 16 23 16 33 0 10 8 26 17 36 16 18 16 19 -3 13
-18 -6 -18 -6 -2 8 10 8 15 17 11 20 -3 4 -1 7 7 7 10 0 10 4 -1 17 -8 9 -9
14 -4 11 6 -4 15 5 22 18 7 15 7 22 1 18 -6 -4 -8 -1 -6 7 3 8 10 13 15 12 5
-1 10 4 10 12 0 8 -5 12 -11 9 -6 -3 -3 1 7 9 18 15 24 32 7 22 -6 -3 -7 1 -4
9 3 9 11 13 18 9 6 -4 4 2 -4 12 -8 10 -10 16 -4 12 11 -7 29 43 25 71 -1 6 3
12 9 12 5 0 10 5 10 11 0 5 -6 7 -12 3 -10 -6 -10 -5 -1 8 7 8 10 18 6 21 -3
4 -1 7 4 7 6 0 10 8 9 18 -2 9 2 20 8 24 7 5 6 8 -3 8 -11 0 -9 5 5 22 10 12
13 18 7 14 -18 -10 -16 2 2 21 12 12 13 18 4 29 -8 10 -8 14 0 14 6 0 11 5 11
11 0 5 -6 7 -12 3 -10 -6 -10 -4 0 7 6 7 12 21 12 32 0 10 5 15 10 12 6 -3 10
-1 10 4 0 6 -4 11 -10 11 -5 0 -10 5 -10 11 0 5 4 8 8 5 5 -3 9 1 9 9 0 8 -4
15 -9 15 -4 0 -8 5 -8 11 0 5 5 7 10 4 9 -5 16 41 11 69 -1 4 4 15 11 24 10
12 10 14 1 8 -7 -4 -13 -3 -13 3 0 5 6 12 13 14 8 4 8 6 -2 6 -11 1 -10 5 5
17 10 8 13 13 7 9 -7 -3 -13 -1 -13 4 0 6 5 11 11 11 8 0 7 6 -2 17 -10 11
-10 14 -1 9 8 -5 11 -1 8 16 -2 13 2 29 8 37 8 11 8 13 -1 7 -16 -9 -17 8 -3
35 7 11 7 19 1 19 -10 0 -9 25 2 36 4 4 2 13 -5 21 -9 11 -7 12 8 6 17 -6 17
-5 5 10 -9 11 -10 17 -2 17 6 0 11 5 11 11 0 5 -4 8 -8 5 -4 -2 -8 4 -8 15 0
10 3 19 6 19 10 0 10 43 0 55 -5 6 -5 17 -1 24 5 7 6 22 4 32 -3 12 0 19 8 19
9 0 7 5 -5 11 -15 9 -16 13 -5 20 12 7 11 9 -1 9 -13 0 -13 1 0 10 13 8 13 10
1 10 -11 0 -10 4 5 16 16 13 16 15 2 10 -14 -4 -17 0 -14 24 2 16 -1 27 -5 24
-5 -3 -9 -1 -9 5 0 5 5 13 10 16 6 4 7 13 2 23 -5 9 -8 24 -7 32 1 8 -3 23 -8
34 -6 13 -6 16 2 12 6 -4 11 -3 11 3 0 5 -7 14 -16 19 -12 7 -13 11 -5 17 9 5
9 10 1 20 -6 8 -12 27 -12 44 -1 17 -4 31 -7 31 -4 0 -7 9 -8 20 -1 13 2 18 9
14 7 -4 8 -2 4 5 -4 6 -11 9 -16 6 -14 -9 -21 27 -8 43 10 12 10 14 1 8 -8 -4
-13 -1 -13 8 0 9 -5 16 -11 16 -5 0 -8 4 -4 9 3 5 -2 16 -10 24 -11 12 -12 17
-2 20 9 4 8 6 -2 6 -11 1 -11 4 -1 16 11 13 10 14 -5 8 -14 -5 -17 -3 -12 10
3 9 2 17 -3 17 -5 0 -6 7 -3 17 4 10 2 14 -4 10 -6 -4 -20 9 -32 29 -12 19
-17 33 -13 30 5 -3 9 1 9 8 0 8 -7 12 -14 9 -8 -3 -13 -2 -12 3 4 21 -2 35
-12 28 -7 -4 -6 2 2 17 12 23 11 23 -6 9 -10 -8 -16 -10 -12 -4 6 10 -1 21
-42 70 -5 7 -7 15 -3 20 4 4 -1 4 -11 1 -15 -6 -16 -4 -6 14 8 15 8 19 0 15
-10 -7 -16 7 -12 28 1 5 -6 3 -15 -5 -12 -9 -15 -9 -10 -1 4 6 2 12 -3 12 -6
0 -11 6 -11 14 0 7 -8 20 -17 27 -17 13 -17 13 -3 -6 14 -19 14 -19 -3 -6 -14
11 -15 16 -5 29 10 12 10 14 1 8 -7 -4 -20 2 -30 14 -10 11 -24 20 -33 20 -13
0 -13 1 0 10 13 8 12 10 -2 10 -10 0 -18 5 -18 10 0 6 -7 10 -16 10 -8 0 -12
4 -9 10 3 6 -1 7 -9 4 -11 -4 -16 0 -16 10 0 9 -8 16 -21 16 -11 0 -18 4 -15
9 3 5 -1 12 -10 15 -10 4 -13 2 -9 -7 4 -6 -2 -2 -13 10 -11 12 -22 19 -26 16
-3 -4 -6 -2 -6 4 0 5 -6 10 -12 11 -27 2 -48 8 -55 17 -4 4 -2 5 6 0 9 -5 12
-4 7 3 -4 6 -13 9 -20 6 -8 -3 -17 -1 -20 5 -4 6 -14 7 -23 4 -10 -4 -14 -2
-10 4 4 6 -1 14 -10 17 -9 4 -20 1 -25 -6 -6 -10 -8 -10 -8 1 0 7 -6 11 -15 7
-10 -3 -15 1 -15 11 0 13 -3 14 -12 5 -15 -15 -31 -16 -22 -1 4 7 1 10 -7 7
-8 -3 -23 -1 -34 5 -19 10 -19 9 -5 -9 14 -18 14 -18 -5 -2 -11 9 -24 18 -30
20 -5 2 -9 7 -7 11 1 5 -2 6 -8 2 -6 -3 -7 -11 -4 -17 4 -6 -2 -6 -15 1 -16 9
-21 9 -21 -1 0 -9 -3 -9 -10 2 -5 8 -10 11 -10 5 0 -5 -5 -3 -10 5 -6 10 -10
11 -10 3 0 -7 -5 -13 -11 -13 -5 0 -8 4 -5 9 8 13 -37 0 -46 -13 -5 -7 -8 -3
-8 9 0 15 -3 16 -12 7 -7 -7 -17 -12 -22 -12 -6 0 -4 5 4 11 12 9 12 10 -4 5
-10 -4 -26 -1 -34 6 -9 8 -13 8 -9 2z m817 -2818 c0 -3 -4 -8 -10 -11 -5 -3
-10 -1 -10 4 0 6 5 11 10 11 6 0 10 -2 10 -4z m-380 -541 c-7 -9 -15 -13 -19
-10 -3 3 1 10 9 15 21 14 24 12 10 -5z"/>
<path d="M11305 10780 c-3 -6 1 -7 9 -4 18 7 21 14 7 14 -6 0 -13 -4 -16 -10z"/>
<path d="M10150 10236 c0 -2 7 -7 16 -10 8 -3 12 -2 9 4 -6 10 -25 14 -25 6z"/>
<path d="M10990 8799 c0 -5 5 -7 10 -4 6 3 10 8 10 11 0 2 -4 4 -10 4 -5 0
-10 -5 -10 -11z"/>
<path d="M13110 8009 c0 -5 5 -7 10 -4 6 3 10 8 10 11 0 2 -4 4 -10 4 -5 0
-10 -5 -10 -11z"/>
</g>
</svg>
