<?xml version="1.0" standalone="no"?><svg xmlns:xlink="http://www.w3.org/1999/xlink" xmlns="http://www.w3.org/2000/svg" viewBox="0 0 1000 562.5015555905852" preserveAspectRatio="xMaxYMax slice"><g transform="scale(0.8296483120805092)"><rect x="0" y="0" width="1205.3333333333333" height="678" fill="#ffffff"/><g transform="translate(18.83,18.83) scale(1.8835000000000002) rotate(0)"><path d="M13 0H20V7L7 20H0V13L13 0Z" fill="#728aed"/></g><rect x="94.16666666666666" y="18.833333333333332" width="37.666666666666664" height="37.666666666666664" fill="#ffffff"/><g transform="translate(94.17,18.83) scale(0.9414999999999999) rotate(0)"><path d="M13 0H20V7L7 20H0V13L13 0Z" fill="#fbd7a8"/></g><g transform="translate(94.17,37.67) scale(0.9414999999999999) rotate(0)"><path d="M13 0H20V7L7 20H0V13L13 0Z" fill="#7289ed"/></g><g transform="translate(113,37.67) scale(0.9414999999999999) rotate(0)"><path d="M13 0H20V7L7 20H0V13L13 0Z" fill="#f6f8fe"/></g><rect x="470.8333333333333" y="18.833333333333332" width="37.666666666666664" height="37.666666666666664" fill="#ffffff"/><g transform="translate(470.83,18.83) scale(0.9414999999999999) rotate(0)"><path d="M13 0H20V7L7 20H0V13L13 0Z" fill="#f7a740"/></g><g transform="translate(470.83,37.67) scale(0.9414999999999999) rotate(0)"><path d="M10 5L5 0L0 5L5 10L0 15L5 20L10 15L15 20L20 15L15 10L20 5L15 0L10 5Z" fill="#294de3"/></g><rect x="621.5" y="18.833333333333332" width="37.666666666666664" height="37.666666666666664" fill="#ffffff"/><g transform="translate(640.33,18.83) scale(0.9414999999999999) rotate(0)"><path d="M10 5L5 0L0 5L5 10L0 15L5 20L10 15L15 20L20 15L15 10L20 5L15 0L10 5Z" fill="#7189ed"/></g><g transform="translate(640.33,37.67) scale(0.9414999999999999) rotate(0)"><path d="M10 5L5 0L0 5L5 10L0 15L5 20L10 15L15 20L20 15L15 10L20 5L15 0L10 5Z" fill="#a9b7f4"/></g><g transform="translate(1148.83,18.83) scale(1.8835000000000002) rotate(0)"><path d="M10 5L5 0L0 5L5 10L0 15L5 20L10 15L15 20L20 15L15 10L20 5L15 0L10 5Z" fill="#f9c077"/></g><g transform="translate(546.17,94.17) scale(1.8835000000000002) rotate(0)"><path d="M10 5L5 0L0 5L5 10L0 15L5 20L10 15L15 20L20 15L15 10L20 5L15 0L10 5Z" fill="#5370e9"/></g><g transform="translate(998.17,94.17) scale(1.8835000000000002) rotate(0)"><path d="M13 0H20V7L7 20H0V13L13 0Z" fill="#fffefd"/></g><g transform="translate(94.17,169.5) scale(1.8835000000000002) rotate(0)"><path d="M10 5L5 0L0 5L5 10L0 15L5 20L10 15L15 20L20 15L15 10L20 5L15 0L10 5Z" fill="#b4c0f5"/></g><rect x="244.83333333333334" y="169.5" width="37.666666666666664" height="37.666666666666664" fill="#ffffff"/><g transform="translate(244.83,188.33) scale(0.9414999999999999) rotate(0)"><path d="M10 5L5 0L0 5L5 10L0 15L5 20L10 15L15 20L20 15L15 10L20 5L15 0L10 5Z" fill="#fde8cd"/></g><rect x="395.49999999999994" y="169.5" width="37.666666666666664" height="37.666666666666664" fill="#ffffff"/><g transform="translate(395.5,169.5) scale(0.9414999999999999) rotate(0)"><path d="M10 5L5 0L0 5L5 10L0 15L5 20L10 15L15 20L20 15L15 10L20 5L15 0L10 5Z" fill="#f8b054"/></g><g transform="translate(414.33,188.33) scale(0.9414999999999999) rotate(0)"><path d="M10 5L5 0L0 5L5 10L0 15L5 20L10 15L15 20L20 15L15 10L20 5L15 0L10 5Z" fill="#e7ebfc"/></g><g transform="translate(621.5,169.5) scale(1.8835000000000002) rotate(0)"><path d="M13 0H20V7L7 20H0V13L13 0Z" fill="#fcdfb9"/></g><rect x="922.8333333333334" y="169.5" width="37.666666666666664" height="37.666666666666664" fill="#ffffff"/><g transform="translate(922.83,169.5) scale(0.9414999999999999) rotate(0)"><path d="M10 5L5 0L0 5L5 10L0 15L5 20L10 15L15 20L20 15L15 10L20 5L15 0L10 5Z" fill="#fde3c3"/></g><g transform="translate(941.67,188.33) scale(0.9414999999999999) rotate(0)"><path d="M13 0H20V7L7 20H0V13L13 0Z" fill="#7f95ee"/></g><g transform="translate(1148.83,169.5) scale(1.8835000000000002) rotate(0)"><path d="M13 0H20V7L7 20H0V13L13 0Z" fill="#4766e7"/></g><g transform="translate(169.5,244.83) scale(1.8835000000000002) rotate(0)"><path d="M10 5L5 0L0 5L5 10L0 15L5 20L10 15L15 20L20 15L15 10L20 5L15 0L10 5Z" fill="#fef9f1"/></g><g transform="translate(470.83,244.83) scale(1.8835000000000002) rotate(0)"><path d="M13 0H20V7L7 20H0V13L13 0Z" fill="#fdedd8"/></g><g transform="translate(546.17,244.83) scale(1.8835000000000002) rotate(0)"><path d="M10 5L5 0L0 5L5 10L0 15L5 20L10 15L15 20L20 15L15 10L20 5L15 0L10 5Z" fill="#7d93ee"/></g><rect x="621.5" y="244.83333333333334" width="37.666666666666664" height="37.666666666666664" fill="#ffffff"/><g transform="translate(640.33,244.83) scale(0.9414999999999999) rotate(0)"><path d="M10 5L5 0L0 5L5 10L0 15L5 20L10 15L15 20L20 15L15 10L20 5L15 0L10 5Z" fill="#f9bb6b"/></g><rect x="772.1666666666666" y="244.83333333333334" width="37.666666666666664" height="37.666666666666664" fill="#ffffff"/><g transform="translate(791,244.83) scale(0.9414999999999999) rotate(0)"><path d="M10 5L5 0L0 5L5 10L0 15L5 20L10 15L15 20L20 15L15 10L20 5L15 0L10 5Z" fill="#fac889"/></g><g transform="translate(791,263.67) scale(0.9414999999999999) rotate(0)"><path d="M13 0H20V7L7 20H0V13L13 0Z" fill="#5c77ea"/></g><g transform="translate(922.83,244.83) scale(1.8835000000000002) rotate(0)"><path d="M13 0H20V7L7 20H0V13L13 0Z" fill="#fde6c9"/></g><g transform="translate(1073.5,244.83) scale(1.8835000000000002) rotate(0)"><path d="M13 0H20V7L7 20H0V13L13 0Z" fill="#fde9d0"/></g><g transform="translate(1148.83,244.83) scale(1.8835000000000002) rotate(0)"><path d="M10 5L5 0L0 5L5 10L0 15L5 20L10 15L15 20L20 15L15 10L20 5L15 0L10 5Z" fill="#a0b0f3"/></g><rect x="18.833333333333332" y="320.16666666666663" width="37.666666666666664" height="37.666666666666664" fill="#ffffff"/><g transform="translate(37.67,320.17) scale(0.9414999999999999) rotate(0)"><path d="M10 5L5 0L0 5L5 10L0 15L5 20L10 15L15 20L20 15L15 10L20 5L15 0L10 5Z" fill="#2147e2"/></g><g transform="translate(18.83,339) scale(0.9414999999999999) rotate(0)"><path d="M13 0H20V7L7 20H0V13L13 0Z" fill="#8297ef"/></g><rect x="244.83333333333334" y="320.16666666666663" width="37.666666666666664" height="37.666666666666664" fill="#ffffff"/><g transform="translate(244.83,320.17) scale(0.9414999999999999) rotate(0)"><path d="M13 0H20V7L7 20H0V13L13 0Z" fill="#fffaf4"/></g><g transform="translate(244.83,339) scale(0.9414999999999999) rotate(0)"><path d="M13 0H20V7L7 20H0V13L13 0Z" fill="#fbd6a7"/></g><rect x="621.5" y="320.16666666666663" width="37.666666666666664" height="37.666666666666664" fill="#ffffff"/><g transform="translate(640.33,320.17) scale(0.9414999999999999) rotate(0)"><path d="M10 5L5 0L0 5L5 10L0 15L5 20L10 15L15 20L20 15L15 10L20 5L15 0L10 5Z" fill="#fac889"/></g><rect x="1148.8333333333333" y="320.16666666666663" width="37.666666666666664" height="37.666666666666664" fill="#ffffff"/><g transform="translate(18.83,395.5) scale(1.8835000000000002) rotate(0)"><path d="M10 5L5 0L0 5L5 10L0 15L5 20L10 15L15 20L20 15L15 10L20 5L15 0L10 5Z" fill="#a8b7f4"/></g><rect x="320.16666666666663" y="395.49999999999994" width="37.666666666666664" height="37.666666666666664" fill="#ffffff"/><g transform="translate(339,395.5) scale(0.9414999999999999) rotate(0)"><path d="M13 0H20V7L7 20H0V13L13 0Z" fill="#899df0"/></g><g transform="translate(339,414.33) scale(0.9414999999999999) rotate(0)"><path d="M10 5L5 0L0 5L5 10L0 15L5 20L10 15L15 20L20 15L15 10L20 5L15 0L10 5Z" fill="#facc91"/></g><g transform="translate(546.17,395.5) scale(1.8835000000000002) rotate(0)"><path d="M13 0H20V7L7 20H0V13L13 0Z" fill="#c2ccf7"/></g><rect x="772.1666666666666" y="395.49999999999994" width="37.666666666666664" height="37.666666666666664" fill="#ffffff"/><g transform="translate(922.83,395.5) scale(1.8835000000000002) rotate(0)"><path d="M10 5L5 0L0 5L5 10L0 15L5 20L10 15L15 20L20 15L15 10L20 5L15 0L10 5Z" fill="#eceffd"/></g><g transform="translate(1148.83,395.5) scale(1.8835000000000002) rotate(0)"><path d="M13 0H20V7L7 20H0V13L13 0Z" fill="#cbd4f8"/></g><g transform="translate(169.5,470.83) scale(1.8835000000000002) rotate(0)"><path d="M13 0H20V7L7 20H0V13L13 0Z" fill="#9eaff2"/></g><rect x="621.5" y="470.8333333333333" width="37.666666666666664" height="37.666666666666664" fill="#ffffff"/><g transform="translate(621.5,470.83) scale(0.9414999999999999) rotate(0)"><path d="M13 0H20V7L7 20H0V13L13 0Z" fill="#fef6ec"/></g><g transform="translate(640.33,470.83) scale(0.9414999999999999) rotate(0)"><path d="M10 5L5 0L0 5L5 10L0 15L5 20L10 15L15 20L20 15L15 10L20 5L15 0L10 5Z" fill="#c8d2f8"/></g><g transform="translate(640.33,489.67) scale(0.9414999999999999) rotate(0)"><path d="M10 5L5 0L0 5L5 10L0 15L5 20L10 15L15 20L20 15L15 10L20 5L15 0L10 5Z" fill="#798fee"/></g><rect x="696.8333333333334" y="470.8333333333333" width="37.666666666666664" height="37.666666666666664" fill="#ffffff"/><g transform="translate(715.67,470.83) scale(0.9414999999999999) rotate(0)"><path d="M10 5L5 0L0 5L5 10L0 15L5 20L10 15L15 20L20 15L15 10L20 5L15 0L10 5Z" fill="#f8b155"/></g><g transform="translate(715.67,489.67) scale(0.9414999999999999) rotate(0)"><path d="M13 0H20V7L7 20H0V13L13 0Z" fill="#385ae5"/></g><g transform="translate(772.17,470.83) scale(1.8835000000000002) rotate(0)"><path d="M13 0H20V7L7 20H0V13L13 0Z" fill="#4464e7"/></g><g transform="translate(998.17,470.83) scale(1.8835000000000002) rotate(0)"><path d="M13 0H20V7L7 20H0V13L13 0Z" fill="#3356e5"/></g><rect x="1073.4999999999998" y="470.8333333333333" width="37.666666666666664" height="37.666666666666664" fill="#ffffff"/><g transform="translate(1092.33,470.83) scale(0.9414999999999999) rotate(0)"><path d="M10 5L5 0L0 5L5 10L0 15L5 20L10 15L15 20L20 15L15 10L20 5L15 0L10 5Z" fill="#cdd6f9"/></g><g transform="translate(1092.33,489.67) scale(0.9414999999999999) rotate(0)"><path d="M10 5L5 0L0 5L5 10L0 15L5 20L10 15L15 20L20 15L15 10L20 5L15 0L10 5Z" fill="#8da0f0"/></g><g transform="translate(18.83,546.17) scale(1.8835000000000002) rotate(0)"><path d="M10 5L5 0L0 5L5 10L0 15L5 20L10 15L15 20L20 15L15 10L20 5L15 0L10 5Z" fill="#fbd4a2"/></g><rect x="94.16666666666666" y="546.1666666666666" width="37.666666666666664" height="37.666666666666664" fill="#ffffff"/><g transform="translate(94.17,546.17) scale(0.9414999999999999) rotate(0)"><path d="M13 0H20V7L7 20H0V13L13 0Z" fill="#d5dcfa"/></g><rect x="1073.4999999999998" y="546.1666666666666" width="37.666666666666664" height="37.666666666666664" fill="#ffffff"/><g transform="translate(1073.5,565) scale(0.9414999999999999) rotate(0)"><path d="M13 0H20V7L7 20H0V13L13 0Z" fill="#f7a740"/></g><g transform="translate(1092.33,565) scale(0.9414999999999999) rotate(0)"><path d="M13 0H20V7L7 20H0V13L13 0Z" fill="#f9bb6b"/></g><g transform="translate(1148.83,546.17) scale(1.8835000000000002) rotate(0)"><path d="M13 0H20V7L7 20H0V13L13 0Z" fill="#788fee"/></g><g transform="translate(621.5,621.5) scale(1.8835000000000002) rotate(0)"><path d="M13 0H20V7L7 20H0V13L13 0Z" fill="#fef1e1"/></g><g transform="translate(847.5,621.5) scale(1.8835000000000002) rotate(0)"><path d="M10 5L5 0L0 5L5 10L0 15L5 20L10 15L15 20L20 15L15 10L20 5L15 0L10 5Z" fill="#fbd098"/></g><rect x="1073.4999999999998" y="621.5" width="37.666666666666664" height="37.666666666666664" fill="#ffffff"/><g transform="translate(1092.33,621.5) scale(0.9414999999999999) rotate(0)"><path d="M13 0H20V7L7 20H0V13L13 0Z" fill="#95a7f1"/></g><g transform="translate(1092.33,640.33) scale(0.9414999999999999) rotate(0)"><path d="M13 0H20V7L7 20H0V13L13 0Z" fill="#f7aa46"/></g></g></svg>