<?xml version="1.0" standalone="no"?><svg xmlns:xlink="http://www.w3.org/1999/xlink" xmlns="http://www.w3.org/2000/svg" viewBox="0 0 1000 562.5015555905852" preserveAspectRatio="xMaxYMax slice"><g transform="scale(0.8296483120805092)"><rect x="0" y="0" width="1205.3333333333333" height="678" fill="#ffffff"/><rect x="169.5" y="18.833333333333332" width="37.666666666666664" height="37.666666666666664" fill="#ffffff"/><g transform="translate(188.33,18.83) scale(0.9414999999999999) rotate(0)"><path d="M13 0H20V7L7 20H0V13L13 0Z" fill="#dad2f9"/></g><g transform="translate(169.5,37.67) scale(0.9414999999999999) rotate(0)"><path d="M13 0H20V7L7 20H0V13L13 0Z" fill="#f2f2f2"/></g><g transform="translate(696.83,18.83) scale(1.8835000000000002) rotate(0)"><path fill-rule="evenodd" clip-rule="evenodd" d="M10 20C15.5228 20 20 15.5228 20 10C20 4.47715 15.5228 0 10 0C4.47715 0 0 4.47715 0 10C0 15.5228 4.47715 20 10 20ZM10 17C13.866 17 17 13.866 17 10C17 6.13401 13.866 3 10 3C6.13401 3 3 6.13401 3 10C3 13.866 6.13401 17 10 17Z" fill="#d4caf8"/></g><g transform="translate(847.5,18.83) scale(1.8835000000000002) rotate(0)"><path fill-rule="evenodd" clip-rule="evenodd" d="M10 20C15.5228 20 20 15.5228 20 10C20 4.47715 15.5228 0 10 0C4.47715 0 0 4.47715 0 10C0 15.5228 4.47715 20 10 20ZM10 17C13.866 17 17 13.866 17 10C17 6.13401 13.866 3 10 3C6.13401 3 3 6.13401 3 10C3 13.866 6.13401 17 10 17Z" fill="#f1f1f1"/></g><g transform="translate(1148.83,18.83) scale(1.8835000000000002) rotate(0)"><path d="M13 0H20V7L7 20H0V13L13 0Z" fill="#fafafa"/></g><rect x="18.833333333333332" y="94.16666666666666" width="37.666666666666664" height="37.666666666666664" fill="#ffffff"/><g transform="translate(37.67,94.17) scale(0.9414999999999999) rotate(0)"><path fill-rule="evenodd" clip-rule="evenodd" d="M10 20C15.5228 20 20 15.5228 20 10C20 4.47715 15.5228 0 10 0C4.47715 0 0 4.47715 0 10C0 15.5228 4.47715 20 10 20ZM10 17C13.866 17 17 13.866 17 10C17 6.13401 13.866 3 10 3C6.13401 3 3 6.13401 3 10C3 13.866 6.13401 17 10 17Z" fill="#cabff6"/></g><g transform="translate(18.83,113) scale(0.9414999999999999) rotate(0)"><path fill-rule="evenodd" clip-rule="evenodd" d="M10 20C15.5228 20 20 15.5228 20 10C20 4.47715 15.5228 0 10 0C4.47715 0 0 4.47715 0 10C0 15.5228 4.47715 20 10 20ZM10 17C13.866 17 17 13.866 17 10C17 6.13401 13.866 3 10 3C6.13401 3 3 6.13401 3 10C3 13.866 6.13401 17 10 17Z" fill="#f1f1f1"/></g><g transform="translate(94.17,94.17) scale(1.8835000000000002) rotate(0)"><path d="M13 0H20V7L7 20H0V13L13 0Z" fill="#f0f0f0"/></g><g transform="translate(169.5,94.17) scale(1.8835000000000002) rotate(0)"><path d="M13 0H20V7L7 20H0V13L13 0Z" fill="#e6e6e6"/></g><g transform="translate(395.5,94.17) scale(1.8835000000000002) rotate(0)"><path fill-rule="evenodd" clip-rule="evenodd" d="M10 20C15.5228 20 20 15.5228 20 10C20 4.47715 15.5228 0 10 0C4.47715 0 0 4.47715 0 10C0 15.5228 4.47715 20 10 20ZM10 17C13.866 17 17 13.866 17 10C17 6.13401 13.866 3 10 3C6.13401 3 3 6.13401 3 10C3 13.866 6.13401 17 10 17Z" fill="#fdfdfd"/></g><rect x="847.5" y="94.16666666666666" width="37.666666666666664" height="37.666666666666664" fill="#ffffff"/><g transform="translate(866.33,113) scale(0.9414999999999999) rotate(0)"><path fill-rule="evenodd" clip-rule="evenodd" d="M10 20C15.5228 20 20 15.5228 20 10C20 4.47715 15.5228 0 10 0C4.47715 0 0 4.47715 0 10C0 15.5228 4.47715 20 10 20ZM10 17C13.866 17 17 13.866 17 10C17 6.13401 13.866 3 10 3C6.13401 3 3 6.13401 3 10C3 13.866 6.13401 17 10 17Z" fill="#fcfcfc"/></g><rect x="922.8333333333334" y="94.16666666666666" width="37.666666666666664" height="37.666666666666664" fill="#ffffff"/><g transform="translate(941.67,94.17) scale(0.9414999999999999) rotate(0)"><path fill-rule="evenodd" clip-rule="evenodd" d="M10 20C15.5228 20 20 15.5228 20 10C20 4.47715 15.5228 0 10 0C4.47715 0 0 4.47715 0 10C0 15.5228 4.47715 20 10 20ZM10 17C13.866 17 17 13.866 17 10C17 6.13401 13.866 3 10 3C6.13401 3 3 6.13401 3 10C3 13.866 6.13401 17 10 17Z" fill="#c8bcf6"/></g><g transform="translate(169.5,169.5) scale(1.8835000000000002) rotate(0)"><path fill-rule="evenodd" clip-rule="evenodd" d="M10 20C15.5228 20 20 15.5228 20 10C20 4.47715 15.5228 0 10 0C4.47715 0 0 4.47715 0 10C0 15.5228 4.47715 20 10 20ZM10 17C13.866 17 17 13.866 17 10C17 6.13401 13.866 3 10 3C6.13401 3 3 6.13401 3 10C3 13.866 6.13401 17 10 17Z" fill="#d6cdf8"/></g><rect x="244.83333333333334" y="169.5" width="37.666666666666664" height="37.666666666666664" fill="#ffffff"/><g transform="translate(696.83,169.5) scale(1.8835000000000002) rotate(0)"><path fill-rule="evenodd" clip-rule="evenodd" d="M10 20C15.5228 20 20 15.5228 20 10C20 4.47715 15.5228 0 10 0C4.47715 0 0 4.47715 0 10C0 15.5228 4.47715 20 10 20ZM10 17C13.866 17 17 13.866 17 10C17 6.13401 13.866 3 10 3C6.13401 3 3 6.13401 3 10C3 13.866 6.13401 17 10 17Z" fill="#f0f0f0"/></g><rect x="772.1666666666666" y="169.5" width="37.666666666666664" height="37.666666666666664" fill="#ffffff"/><g transform="translate(791,169.5) scale(0.9414999999999999) rotate(0)"><path d="M13 0H20V7L7 20H0V13L13 0Z" fill="#beb0f4"/></g><rect x="922.8333333333334" y="169.5" width="37.666666666666664" height="37.666666666666664" fill="#ffffff"/><g transform="translate(941.67,169.5) scale(0.9414999999999999) rotate(0)"><path d="M13 0H20V7L7 20H0V13L13 0Z" fill="#efefef"/></g><g transform="translate(941.67,188.33) scale(0.9414999999999999) rotate(0)"><path fill-rule="evenodd" clip-rule="evenodd" d="M10 20C15.5228 20 20 15.5228 20 10C20 4.47715 15.5228 0 10 0C4.47715 0 0 4.47715 0 10C0 15.5228 4.47715 20 10 20ZM10 17C13.866 17 17 13.866 17 10C17 6.13401 13.866 3 10 3C6.13401 3 3 6.13401 3 10C3 13.866 6.13401 17 10 17Z" fill="#eeeeee"/></g><g transform="translate(1148.83,169.5) scale(1.8835000000000002) rotate(0)"><path fill-rule="evenodd" clip-rule="evenodd" d="M10 20C15.5228 20 20 15.5228 20 10C20 4.47715 15.5228 0 10 0C4.47715 0 0 4.47715 0 10C0 15.5228 4.47715 20 10 20ZM10 17C13.866 17 17 13.866 17 10C17 6.13401 13.866 3 10 3C6.13401 3 3 6.13401 3 10C3 13.866 6.13401 17 10 17Z" fill="#f7f7f7"/></g><g transform="translate(320.17,244.83) scale(1.8835000000000002) rotate(0)"><path fill-rule="evenodd" clip-rule="evenodd" d="M10 20C15.5228 20 20 15.5228 20 10C20 4.47715 15.5228 0 10 0C4.47715 0 0 4.47715 0 10C0 15.5228 4.47715 20 10 20ZM10 17C13.866 17 17 13.866 17 10C17 6.13401 13.866 3 10 3C6.13401 3 3 6.13401 3 10C3 13.866 6.13401 17 10 17Z" fill="#fdfdfd"/></g><g transform="translate(470.83,244.83) scale(1.8835000000000002) rotate(0)"><path fill-rule="evenodd" clip-rule="evenodd" d="M10 20C15.5228 20 20 15.5228 20 10C20 4.47715 15.5228 0 10 0C4.47715 0 0 4.47715 0 10C0 15.5228 4.47715 20 10 20ZM10 17C13.866 17 17 13.866 17 10C17 6.13401 13.866 3 10 3C6.13401 3 3 6.13401 3 10C3 13.866 6.13401 17 10 17Z" fill="#775ae8"/></g><rect x="546.1666666666666" y="244.83333333333334" width="37.666666666666664" height="37.666666666666664" fill="#ffffff"/><rect x="922.8333333333334" y="244.83333333333334" width="37.666666666666664" height="37.666666666666664" fill="#ffffff"/><rect x="998.1666666666666" y="244.83333333333334" width="37.666666666666664" height="37.666666666666664" fill="#ffffff"/><g transform="translate(998.17,244.83) scale(0.9414999999999999) rotate(0)"><path d="M13 0H20V7L7 20H0V13L13 0Z" fill="#d7cef8"/></g><g transform="translate(1017,244.83) scale(0.9414999999999999) rotate(0)"><path fill-rule="evenodd" clip-rule="evenodd" d="M10 20C15.5228 20 20 15.5228 20 10C20 4.47715 15.5228 0 10 0C4.47715 0 0 4.47715 0 10C0 15.5228 4.47715 20 10 20ZM10 17C13.866 17 17 13.866 17 10C17 6.13401 13.866 3 10 3C6.13401 3 3 6.13401 3 10C3 13.866 6.13401 17 10 17Z" fill="#ececec"/></g><g transform="translate(1148.83,244.83) scale(1.8835000000000002) rotate(0)"><path fill-rule="evenodd" clip-rule="evenodd" d="M10 20C15.5228 20 20 15.5228 20 10C20 4.47715 15.5228 0 10 0C4.47715 0 0 4.47715 0 10C0 15.5228 4.47715 20 10 20ZM10 17C13.866 17 17 13.866 17 10C17 6.13401 13.866 3 10 3C6.13401 3 3 6.13401 3 10C3 13.866 6.13401 17 10 17Z" fill="#e5e5e5"/></g><rect x="18.833333333333332" y="320.16666666666663" width="37.666666666666664" height="37.666666666666664" fill="#ffffff"/><g transform="translate(18.83,320.17) scale(0.9414999999999999) rotate(0)"><path d="M13 0H20V7L7 20H0V13L13 0Z" fill="#e6e6e6"/></g><g transform="translate(37.67,339) scale(0.9414999999999999) rotate(0)"><path d="M13 0H20V7L7 20H0V13L13 0Z" fill="#a895f0"/></g><g transform="translate(546.17,320.17) scale(1.8835000000000002) rotate(0)"><path d="M13 0H20V7L7 20H0V13L13 0Z" fill="#e4e4e4"/></g><g transform="translate(621.5,320.17) scale(1.8835000000000002) rotate(0)"><path fill-rule="evenodd" clip-rule="evenodd" d="M10 20C15.5228 20 20 15.5228 20 10C20 4.47715 15.5228 0 10 0C4.47715 0 0 4.47715 0 10C0 15.5228 4.47715 20 10 20ZM10 17C13.866 17 17 13.866 17 10C17 6.13401 13.866 3 10 3C6.13401 3 3 6.13401 3 10C3 13.866 6.13401 17 10 17Z" fill="#a08cef"/></g><g transform="translate(922.83,320.17) scale(1.8835000000000002) rotate(0)"><path d="M13 0H20V7L7 20H0V13L13 0Z" fill="#f8f8f8"/></g><g transform="translate(1148.83,320.17) scale(1.8835000000000002) rotate(0)"><path fill-rule="evenodd" clip-rule="evenodd" d="M10 20C15.5228 20 20 15.5228 20 10C20 4.47715 15.5228 0 10 0C4.47715 0 0 4.47715 0 10C0 15.5228 4.47715 20 10 20ZM10 17C13.866 17 17 13.866 17 10C17 6.13401 13.866 3 10 3C6.13401 3 3 6.13401 3 10C3 13.866 6.13401 17 10 17Z" fill="#fefefe"/></g><rect x="169.5" y="395.49999999999994" width="37.666666666666664" height="37.666666666666664" fill="#ffffff"/><rect x="244.83333333333334" y="395.49999999999994" width="37.666666666666664" height="37.666666666666664" fill="#ffffff"/><g transform="translate(263.67,395.5) scale(0.9414999999999999) rotate(0)"><path d="M13 0H20V7L7 20H0V13L13 0Z" fill="#6d4ee6"/></g><g transform="translate(244.83,414.33) scale(0.9414999999999999) rotate(0)"><path fill-rule="evenodd" clip-rule="evenodd" d="M10 20C15.5228 20 20 15.5228 20 10C20 4.47715 15.5228 0 10 0C4.47715 0 0 4.47715 0 10C0 15.5228 4.47715 20 10 20ZM10 17C13.866 17 17 13.866 17 10C17 6.13401 13.866 3 10 3C6.13401 3 3 6.13401 3 10C3 13.866 6.13401 17 10 17Z" fill="#f5f5f5"/></g><g transform="translate(546.17,395.5) scale(1.8835000000000002) rotate(0)"><path d="M13 0H20V7L7 20H0V13L13 0Z" fill="#a08cef"/></g><g transform="translate(998.17,395.5) scale(1.8835000000000002) rotate(0)"><path fill-rule="evenodd" clip-rule="evenodd" d="M10 20C15.5228 20 20 15.5228 20 10C20 4.47715 15.5228 0 10 0C4.47715 0 0 4.47715 0 10C0 15.5228 4.47715 20 10 20ZM10 17C13.866 17 17 13.866 17 10C17 6.13401 13.866 3 10 3C6.13401 3 3 6.13401 3 10C3 13.866 6.13401 17 10 17Z" fill="#f1eefd"/></g><rect x="1148.8333333333333" y="395.49999999999994" width="37.666666666666664" height="37.666666666666664" fill="#ffffff"/><g transform="translate(1148.83,414.33) scale(0.9414999999999999) rotate(0)"><path d="M13 0H20V7L7 20H0V13L13 0Z" fill="#9780ed"/></g><g transform="translate(1167.67,414.33) scale(0.9414999999999999) rotate(0)"><path d="M13 0H20V7L7 20H0V13L13 0Z" fill="#d9d1f9"/></g><g transform="translate(169.5,470.83) scale(1.8835000000000002) rotate(0)"><path fill-rule="evenodd" clip-rule="evenodd" d="M10 20C15.5228 20 20 15.5228 20 10C20 4.47715 15.5228 0 10 0C4.47715 0 0 4.47715 0 10C0 15.5228 4.47715 20 10 20ZM10 17C13.866 17 17 13.866 17 10C17 6.13401 13.866 3 10 3C6.13401 3 3 6.13401 3 10C3 13.866 6.13401 17 10 17Z" fill="#d8d0f8"/></g><g transform="translate(395.5,470.83) scale(1.8835000000000002) rotate(0)"><path fill-rule="evenodd" clip-rule="evenodd" d="M10 20C15.5228 20 20 15.5228 20 10C20 4.47715 15.5228 0 10 0C4.47715 0 0 4.47715 0 10C0 15.5228 4.47715 20 10 20ZM10 17C13.866 17 17 13.866 17 10C17 6.13401 13.866 3 10 3C6.13401 3 3 6.13401 3 10C3 13.866 6.13401 17 10 17Z" fill="#f8f7fe"/></g><rect x="470.8333333333333" y="470.8333333333333" width="37.666666666666664" height="37.666666666666664" fill="#ffffff"/><g transform="translate(470.83,470.83) scale(0.9414999999999999) rotate(0)"><path d="M13 0H20V7L7 20H0V13L13 0Z" fill="#6949e5"/></g><g transform="translate(489.67,470.83) scale(0.9414999999999999) rotate(0)"><path fill-rule="evenodd" clip-rule="evenodd" d="M10 20C15.5228 20 20 15.5228 20 10C20 4.47715 15.5228 0 10 0C4.47715 0 0 4.47715 0 10C0 15.5228 4.47715 20 10 20ZM10 17C13.866 17 17 13.866 17 10C17 6.13401 13.866 3 10 3C6.13401 3 3 6.13401 3 10C3 13.866 6.13401 17 10 17Z" fill="#efefef"/></g><g transform="translate(489.67,489.67) scale(0.9414999999999999) rotate(0)"><path d="M13 0H20V7L7 20H0V13L13 0Z" fill="#b8a8f3"/></g><rect x="621.5" y="470.8333333333333" width="37.666666666666664" height="37.666666666666664" fill="#ffffff"/><g transform="translate(621.5,489.67) scale(0.9414999999999999) rotate(0)"><path fill-rule="evenodd" clip-rule="evenodd" d="M10 20C15.5228 20 20 15.5228 20 10C20 4.47715 15.5228 0 10 0C4.47715 0 0 4.47715 0 10C0 15.5228 4.47715 20 10 20ZM10 17C13.866 17 17 13.866 17 10C17 6.13401 13.866 3 10 3C6.13401 3 3 6.13401 3 10C3 13.866 6.13401 17 10 17Z" fill="#e5dffb"/></g><rect x="696.8333333333334" y="470.8333333333333" width="37.666666666666664" height="37.666666666666664" fill="#ffffff"/><rect x="169.5" y="546.1666666666666" width="37.666666666666664" height="37.666666666666664" fill="#ffffff"/><g transform="translate(169.5,565) scale(0.9414999999999999) rotate(0)"><path fill-rule="evenodd" clip-rule="evenodd" d="M10 20C15.5228 20 20 15.5228 20 10C20 4.47715 15.5228 0 10 0C4.47715 0 0 4.47715 0 10C0 15.5228 4.47715 20 10 20ZM10 17C13.866 17 17 13.866 17 10C17 6.13401 13.866 3 10 3C6.13401 3 3 6.13401 3 10C3 13.866 6.13401 17 10 17Z" fill="#f1f1f1"/></g><g transform="translate(188.33,565) scale(0.9414999999999999) rotate(0)"><path fill-rule="evenodd" clip-rule="evenodd" d="M10 20C15.5228 20 20 15.5228 20 10C20 4.47715 15.5228 0 10 0C4.47715 0 0 4.47715 0 10C0 15.5228 4.47715 20 10 20ZM10 17C13.866 17 17 13.866 17 10C17 6.13401 13.866 3 10 3C6.13401 3 3 6.13401 3 10C3 13.866 6.13401 17 10 17Z" fill="#f8f8f8"/></g><g transform="translate(244.83,546.17) scale(1.8835000000000002) rotate(0)"><path d="M13 0H20V7L7 20H0V13L13 0Z" fill="#cbbff6"/></g><rect x="320.16666666666663" y="546.1666666666666" width="37.666666666666664" height="37.666666666666664" fill="#ffffff"/><g transform="translate(320.17,565) scale(0.9414999999999999) rotate(0)"><path d="M13 0H20V7L7 20H0V13L13 0Z" fill="#f1f1f1"/></g><rect x="696.8333333333334" y="546.1666666666666" width="37.666666666666664" height="37.666666666666664" fill="#ffffff"/><g transform="translate(715.67,546.17) scale(0.9414999999999999) rotate(0)"><path d="M13 0H20V7L7 20H0V13L13 0Z" fill="#f2f2f2"/></g><g transform="translate(696.83,565) scale(0.9414999999999999) rotate(0)"><path d="M13 0H20V7L7 20H0V13L13 0Z" fill="#e3e3e3"/></g><rect x="998.1666666666666" y="546.1666666666666" width="37.666666666666664" height="37.666666666666664" fill="#ffffff"/><g transform="translate(169.5,621.5) scale(1.8835000000000002) rotate(0)"><path d="M13 0H20V7L7 20H0V13L13 0Z" fill="#f7f7f7"/></g><rect x="244.83333333333334" y="621.5" width="37.666666666666664" height="37.666666666666664" fill="#ffffff"/><g transform="translate(244.83,621.5) scale(0.9414999999999999) rotate(0)"><path d="M13 0H20V7L7 20H0V13L13 0Z" fill="#efefef"/></g><g transform="translate(263.67,621.5) scale(0.9414999999999999) rotate(0)"><path d="M13 0H20V7L7 20H0V13L13 0Z" fill="#b09ff1"/></g><g transform="translate(244.83,640.33) scale(0.9414999999999999) rotate(0)"><path d="M13 0H20V7L7 20H0V13L13 0Z" fill="#f9f9f9"/></g><rect x="696.8333333333334" y="621.5" width="37.666666666666664" height="37.666666666666664" fill="#ffffff"/><g transform="translate(696.83,621.5) scale(0.9414999999999999) rotate(0)"><path d="M13 0H20V7L7 20H0V13L13 0Z" fill="#6646e5"/></g><g transform="translate(772.17,621.5) scale(1.8835000000000002) rotate(0)"><path d="M13 0H20V7L7 20H0V13L13 0Z" fill="#5e3be3"/></g><rect x="998.1666666666666" y="621.5" width="37.666666666666664" height="37.666666666666664" fill="#ffffff"/></g></svg>